<svg width="15" height="13" viewBox="0 0 15 13" fill="none" xmlns="http://www.w3.org/2000/svg">
<path d="M13.572 1L11.3567 1C11.2042 1 11.0629 1.0788 10.9868 1.2067L7.86999 6.42892C7.70546 6.70434 7.29439 6.70434 7.12986 6.42892L4.01309 1.2067C3.9367 1.0788 3.79567 1 3.64316 1H1.42784C1.09904 1 0.893378 1.34441 1.05791 1.61983L7.12986 11.7932C7.29439 12.0687 7.70546 12.0687 7.86999 11.7932L13.9422 1.61983C14.1065 1.34441 13.9011 1 13.572 1Z" fill="#B0824E"/>
<path d="M7.86996 11.7933L13.9422 1.61988C13.9721 1.57002 13.986 1.51783 13.9929 1.46563L8.13732 11.2765C7.97279 11.552 7.56173 11.552 7.39719 11.2765L1.32498 1.10314C1.30949 1.0773 1.30041 1.05017 1.29132 1.02356C1.0472 1.10314 0.91792 1.38554 1.05788 1.61988L7.12983 11.7933C7.29436 12.069 7.70569 12.069 7.86996 11.7933Z" fill="#B0824E"/>
<path d="M13.572 1L11.3567 1C11.2042 1 11.0629 1.0788 10.9868 1.2067L7.86999 6.42892C7.70546 6.70434 7.29439 6.70434 7.12986 6.42892L4.01309 1.2067C3.9367 1.0788 3.79567 1 3.64316 1H1.42784C1.09904 1 0.893378 1.34441 1.05791 1.61983L7.12986 11.7932C7.29439 12.0687 7.70546 12.0687 7.86999 11.7932L13.9422 1.61983C14.1065 1.34441 13.9011 1 13.572 1Z" stroke="#B0824E" stroke-miterlimit="10"/>
</svg>
