<svg width="37" height="44" viewBox="0 0 37 44" fill="none" xmlns="http://www.w3.org/2000/svg">
<path d="M1 2.45839V9.51547C1 10.0013 1.25074 10.4514 1.65768 10.6939L18.2738 20.6227C19.1502 21.1468 19.1502 22.4563 18.2738 22.9804L1.65768 32.9092C1.25074 33.1525 1 33.6018 1 34.0876V41.1447C1 42.1921 2.09585 42.8473 2.9722 42.3232L35.3421 22.9804C36.2185 22.4563 36.2185 21.1468 35.3421 20.6227L2.9722 1.27909C2.09585 0.755803 1 1.41012 1 2.45839Z" fill="white"/>
<path d="M35.342 20.6227L2.9721 1.2791C2.81343 1.1838 2.64737 1.13955 2.48131 1.11743L33.6978 19.771C34.5742 20.2951 34.5742 21.6046 33.6978 22.1287L1.32791 41.4723C1.2457 41.5217 1.15938 41.5506 1.07471 41.5795C1.32791 42.3572 2.22646 42.769 2.9721 42.3232L35.342 22.9804C36.2192 22.4563 36.2192 21.146 35.342 20.6227Z" fill="white"/>
<path d="M1 2.45839V9.51547C1 10.0013 1.25074 10.4514 1.65768 10.6939L18.2738 20.6227C19.1502 21.1468 19.1502 22.4563 18.2738 22.9804L1.65768 32.9092C1.25074 33.1525 1 33.6018 1 34.0876V41.1447C1 42.1921 2.09585 42.8473 2.9722 42.3232L35.3421 22.9804C36.2185 22.4563 36.2185 21.1468 35.3421 20.6227L2.9722 1.27909C2.09585 0.755803 1 1.41012 1 2.45839Z" stroke="white" stroke-miterlimit="10"/>
</svg>
