<svg width="32" height="38" viewBox="0 0 32 38" fill="none" xmlns="http://www.w3.org/2000/svg">
<path d="M31 35.528V29.4791C31 29.0626 30.7851 28.6768 30.4363 28.469L16.1939 19.9586C15.4427 19.5094 15.4427 18.3869 16.1939 17.9377L30.4363 9.42732C30.7851 9.21874 31 8.83366 31 8.41722V2.36829C31 1.4705 30.0607 0.908932 29.3095 1.35819L1.5639 17.9377C0.812737 18.3869 0.812737 19.5094 1.5639 19.9586L29.3095 36.5388C30.0607 36.9874 31 36.4265 31 35.528Z" fill="white"/>
<path d="M1.56357 19.9586L29.3092 36.5389C29.4452 36.6205 29.5875 36.6585 29.7299 36.6774L2.97287 20.6887C2.22171 20.2394 2.22171 19.117 2.97287 18.6677L30.7185 2.08752C30.789 2.04522 30.863 2.02043 30.9355 1.99563C30.7185 1.32904 29.9483 0.976048 29.3092 1.35821L1.56357 17.9377C0.811705 18.387 0.811705 19.5101 1.56357 19.9586Z" fill="white"/>
<path d="M31 35.528V29.4791C31 29.0626 30.7851 28.6768 30.4363 28.469L16.1939 19.9586C15.4427 19.5094 15.4427 18.3869 16.1939 17.9377L30.4363 9.42732C30.7851 9.21874 31 8.83366 31 8.41722V2.36829C31 1.4705 30.0607 0.90893 29.3095 1.35819L1.5639 17.9377C0.812737 18.3869 0.812737 19.5094 1.5639 19.9586L29.3095 36.5388C30.0607 36.9874 31 36.4265 31 35.528Z" stroke="white" stroke-miterlimit="10"/>
</svg>
