<svg width="500" height="494" viewBox="0 0 500 494" fill="none" xmlns="http://www.w3.org/2000/svg">
<path d="M30.1973 446.136H469.818V408.844L30.1973 417.663V446.136Z" fill="#FFD183"/>
<path d="M30.1973 484.695L469.818 493.53V456.222H30.1973V484.695Z" fill="#FFD183"/>
<path d="M149.506 329.452V350.952C149.506 373.261 194.504 391.357 250 391.357C305.496 391.357 350.494 373.261 350.494 350.952V329.452C438.522 290.771 500 202.819 500 100.494C500 44.998 388.077 0 250 0C111.938 0 0 44.998 0 100.494C0 202.819 61.4932 290.771 149.506 329.452ZM40.8477 100.494C40.8477 98.3125 49.6211 82.9316 88.4551 67.3369C130.341 50.5059 189.209 40.8477 250 40.8477C310.791 40.8477 369.659 50.5068 411.561 67.3369C450.379 82.9316 459.152 98.3125 459.152 100.494C459.152 102.676 450.379 118.042 411.561 133.651C369.659 150.481 310.791 160.141 250 160.141C189.209 160.141 130.341 150.481 88.4551 133.651C49.6221 118.042 40.8477 102.676 40.8477 100.494Z" fill="#FFD183"/>
</svg>
