<svg width="41" height="40" viewBox="0 0 41 40" fill="none" xmlns="http://www.w3.org/2000/svg">
<path d="M33.166 6.56254C32.9086 6.20732 32.5851 5.92049 32.2184 5.72246C31.8517 5.52442 31.451 5.42003 31.0445 5.41671H29.9377L30.2144 3.64587C30.2662 3.22505 30.244 2.7968 30.1491 2.38567C30.0541 1.97455 29.8882 1.58863 29.6609 1.25004C29.1311 0.616637 28.4027 0.242722 27.6317 0.208374H5.58668C5.09741 0.208374 4.62819 0.427867 4.28223 0.818568C3.93627 1.20927 3.74191 1.73917 3.74191 2.29171C3.74191 2.84424 3.93627 3.37415 4.28223 3.76485C4.62819 4.15555 5.09741 4.37504 5.58668 4.37504H26.3404L22.6508 28.2292C22.2344 28.8931 21.9224 29.6331 21.7284 30.4167H17.4855C17.0841 28.9186 16.2665 27.6061 15.1535 26.6733C14.0406 25.7405 12.6914 25.2368 11.3055 25.2368C9.91951 25.2368 8.57033 25.7405 7.45741 26.6733C6.34448 27.6061 5.52688 28.9186 5.12549 30.4167H4.11086L4.57205 27.3959C4.65297 26.8578 4.54369 26.3054 4.26771 25.8573C3.99173 25.4093 3.57109 25.1015 3.09624 25C2.61979 24.9087 2.13061 25.0321 1.73389 25.3437C1.33717 25.6554 1.06458 26.1304 0.97475 26.6667L0.236842 31.1459C0.180168 31.5743 0.208709 32.0116 0.320394 32.426C0.432078 32.8405 0.624101 33.2216 0.882512 33.5417C1.12042 33.862 1.41651 34.1207 1.75071 34.3004C2.08491 34.4801 2.44941 34.5766 2.81952 34.5834H5.12549C5.52688 36.0815 6.34448 37.394 7.45741 38.3268C8.57033 39.2596 9.91951 39.7633 11.3055 39.7633C12.6914 39.7633 14.0406 39.2596 15.1535 38.3268C16.2665 37.394 17.0841 36.0815 17.4855 34.5834H21.7284C22.1298 36.0815 22.9474 37.394 24.0603 38.3268C25.1733 39.2596 26.5224 39.7633 27.9084 39.7633C29.2944 39.7633 30.6435 39.2596 31.7565 38.3268C32.8694 37.394 33.687 36.0815 34.0884 34.5834H35.9332C36.6264 34.5685 37.2928 34.2785 37.8157 33.7642C38.3385 33.25 38.6843 32.5443 38.7926 31.7709L40.8218 18.4375L33.166 6.56254ZM11.3055 35.625C10.5716 35.625 9.86774 35.2958 9.34879 34.7097C8.82985 34.1237 8.53831 33.3288 8.53831 32.5C8.53831 31.6712 8.82985 30.8764 9.34879 30.2903C9.86774 29.7043 10.5716 29.375 11.3055 29.375C12.0394 29.375 12.7432 29.7043 13.2621 30.2903C13.7811 30.8764 14.0726 31.6712 14.0726 32.5C14.0726 33.3288 13.7811 34.1237 13.2621 34.7097C12.7432 35.2958 12.0394 35.625 11.3055 35.625ZM29.292 9.58337H30.4911L35.9332 17.9167H28.0006L29.292 9.58337ZM27.9084 35.625C27.1745 35.625 26.4707 35.2958 25.9517 34.7097C25.4328 34.1237 25.1413 33.3288 25.1413 32.5C25.1413 31.6712 25.4328 30.8764 25.9517 30.2903C26.4707 29.7043 27.1745 29.375 27.9084 29.375C28.6423 29.375 29.3461 29.7043 29.8651 30.2903C30.384 30.8764 30.6756 31.6712 30.6756 32.5C30.6756 33.3288 30.384 34.1237 29.8651 34.7097C29.3461 35.2958 28.6423 35.625 27.9084 35.625ZM35.2875 30.4167H34.0884C33.6915 28.9133 32.8758 27.5945 31.7625 26.6563C30.6492 25.718 29.2976 25.2102 27.9084 25.2084H26.8938L27.355 21.9792H36.4866L35.2875 30.4167Z" fill="#B2854F"/>
<path d="M2.08159 10.625H11.3054C11.7947 10.625 12.2639 10.4055 12.6099 10.0148C12.9559 9.62415 13.1502 9.09424 13.1502 8.54171C13.1502 7.98917 12.9559 7.45927 12.6099 7.06857C12.2639 6.67787 11.7947 6.45837 11.3054 6.45837H2.08159C1.59232 6.45837 1.1231 6.67787 0.777137 7.06857C0.431176 7.45927 0.236816 7.98917 0.236816 8.54171C0.236816 9.09424 0.431176 9.62415 0.777137 10.0148C1.1231 10.4055 1.59232 10.625 2.08159 10.625Z" fill="#B2854F"/>
<path d="M12.2278 14.7917C12.2278 14.2392 12.0334 13.7093 11.6875 13.3186C11.3415 12.9279 10.8723 12.7084 10.383 12.7084H3.00395C2.51469 12.7084 2.04546 12.9279 1.6995 13.3186C1.35354 13.7093 1.15918 14.2392 1.15918 14.7917C1.15918 15.3442 1.35354 15.8741 1.6995 16.2648C2.04546 16.6555 2.51469 16.875 3.00395 16.875H10.383C10.8723 16.875 11.3415 16.6555 11.6875 16.2648C12.0334 15.8741 12.2278 15.3442 12.2278 14.7917Z" fill="#B2854F"/>
<path d="M3.92631 18.9584C3.43705 18.9584 2.96783 19.1779 2.62186 19.5686C2.2759 19.9593 2.08154 20.4892 2.08154 21.0417C2.08154 21.5942 2.2759 22.1241 2.62186 22.5148C2.96783 22.9055 3.43705 23.125 3.92631 23.125H9.46063C9.94989 23.125 10.4191 22.9055 10.7651 22.5148C11.111 22.1241 11.3054 21.5942 11.3054 21.0417C11.3054 20.4892 11.111 19.9593 10.7651 19.5686C10.4191 19.1779 9.94989 18.9584 9.46063 18.9584H3.92631Z" fill="#B2854F"/>
</svg>
