<svg width="65" height="65" viewBox="0 0 65 65" fill="none" xmlns="http://www.w3.org/2000/svg">
<path d="M53.331 50.0054H26.3283C24.6806 50.0086 23.0777 49.4692 21.7672 48.4705C20.4567 47.4718 19.5115 46.0694 19.0776 44.4798L12.502 20.6525C12.4009 20.2817 12.3866 19.8925 12.4603 19.5152C12.534 19.138 12.6937 18.7828 12.927 18.4773C13.1701 18.161 13.4853 17.9075 13.8463 17.7378C14.2073 17.5682 14.6036 17.4874 15.0022 17.5022H62.5069C62.8742 17.5016 63.2371 17.582 63.5698 17.7375C63.9026 17.8931 64.197 18.1201 64.432 18.4023C64.6642 18.6848 64.8315 19.0149 64.9222 19.3691C65.0129 19.7233 65.0248 20.0932 64.9571 20.4525L60.7067 43.8548C60.3908 45.5808 59.4799 47.1415 58.1322 48.2653C56.7846 49.389 55.0857 50.0048 53.331 50.0054ZM18.3276 22.5027L23.9531 43.1547C24.0996 43.7002 24.4265 44.1799 24.8805 44.5159C25.3345 44.8519 25.8889 45.0242 26.4533 45.0049H53.456C54.048 45.0145 54.6242 44.8138 55.0821 44.4383C55.54 44.0629 55.8497 43.5371 55.9562 42.9547L59.5066 22.5027H18.3276Z" fill="white"/>
<path d="M15.0015 22.5022C14.4403 22.5229 13.8885 22.3542 13.4349 22.0231C12.9813 21.692 12.6525 21.2178 12.5012 20.677L8.62584 6.82567C8.4746 6.28486 8.14571 5.81072 7.69215 5.47962C7.23859 5.14852 6.68677 4.97975 6.1256 5.00049H2.50024C1.83714 5.00049 1.20119 4.73708 0.732304 4.26819C0.263418 3.7993 0 3.16336 0 2.50025C0 1.83714 0.263418 1.2012 0.732304 0.732312C1.20119 0.263425 1.83714 7.49999e-06 2.50024 7.49999e-06H6.22561C7.85926 -0.00230195 9.449 0.528803 10.7532 1.5126C12.0574 2.4964 13.0048 3.8791 13.4513 5.45054L17.5017 19.3269C17.6033 19.6552 17.6362 20.001 17.5982 20.3426C17.5602 20.6841 17.4522 21.0142 17.2809 21.3122C17.1097 21.6102 16.8788 21.8696 16.6027 22.0744C16.3267 22.2791 16.0114 22.4248 15.6765 22.5022C15.453 22.5386 15.225 22.5386 15.0015 22.5022Z" fill="white"/>
<path d="M32.5031 65.0063C31.5141 65.0063 30.5473 64.7131 29.725 64.1636C28.9027 63.6142 28.2617 62.8332 27.8833 61.9195C27.5048 61.0057 27.4058 60.0003 27.5987 59.0303C27.7917 58.0603 28.2679 57.1693 28.9672 56.47C29.6666 55.7707 30.5576 55.2944 31.5276 55.1015C32.4976 54.9085 33.503 55.0075 34.4167 55.386C35.3304 55.7645 36.1114 56.4054 36.6609 57.2277C37.2103 58.0501 37.5036 59.0169 37.5036 60.0059C37.5036 61.3321 36.9768 62.604 36.039 63.5417C35.1012 64.4795 33.8293 65.0063 32.5031 65.0063Z" fill="white"/>
<path d="M47.5051 65.0063C46.5161 65.0063 45.5493 64.7131 44.727 64.1636C43.9046 63.6142 43.2637 62.8332 42.8852 61.9195C42.5068 61.0057 42.4077 60.0003 42.6007 59.0303C42.7936 58.0603 43.2699 57.1693 43.9692 56.47C44.6686 55.7707 45.5596 55.2944 46.5296 55.1015C47.4996 54.9085 48.505 55.0075 49.4187 55.386C50.3324 55.7645 51.1134 56.4054 51.6628 57.2277C52.2123 58.0501 52.5056 59.0169 52.5056 60.0059C52.5056 61.3321 51.9787 62.604 51.041 63.5417C50.1032 64.4795 48.8313 65.0063 47.5051 65.0063Z" fill="white"/>
<path d="M47.5048 35.0039H32.5033C31.8402 35.0039 31.2043 34.7405 30.7354 34.2716C30.2665 33.8027 30.0031 33.1668 30.0031 32.5037C30.0031 31.8406 30.2665 31.2046 30.7354 30.7357C31.2043 30.2668 31.8402 30.0034 32.5033 30.0034H47.5048C48.1679 30.0034 48.8038 30.2668 49.2727 30.7357C49.7416 31.2046 50.005 31.8406 50.005 32.5037C50.005 33.1668 49.7416 33.8027 49.2727 34.2716C48.8038 34.7405 48.1679 35.0039 47.5048 35.0039Z" fill="white"/>
</svg>
