<svg width="75" height="75" viewBox="0 0 75 75" fill="none" xmlns="http://www.w3.org/2000/svg">
<path fill-rule="evenodd" clip-rule="evenodd" d="M37.5 70.5882C19.2529 70.5882 4.41176 55.7471 4.41176 37.5C4.41176 19.2529 19.2529 4.41176 37.5 4.41176C55.7471 4.41176 70.5882 19.2529 70.5882 37.5C70.5882 55.7471 55.7471 70.5882 37.5 70.5882ZM37.5 0C16.8221 0 0 16.8221 0 37.5C0 58.1779 16.8221 75 37.5 75C58.1779 75 75 58.1779 75 37.5C75 16.8221 58.1779 0 37.5 0ZM33.3728 45.2334L22.7757 34.6363L19.6566 37.7555L33.3728 51.4716L56.8125 28.0319L53.6934 24.9128L33.3728 45.2334Z" fill="#B2854F"/>
</svg>
