<svg width="75" height="75" viewBox="0 0 75 75" fill="none" xmlns="http://www.w3.org/2000/svg">
<path d="M60.8621 12.0481C60.3868 11.3746 59.7893 10.8308 59.1122 10.4552C58.4351 10.0797 57.695 9.88181 56.9444 9.87552H54.9004L55.4114 6.51784C55.5072 5.71991 55.4662 4.90791 55.2908 4.12838C55.1154 3.34885 54.8091 2.61711 54.3894 1.9751C53.4109 0.774107 52.0658 0.0651277 50.642 0H9.93181C9.02829 0 8.16178 0.416181 7.5229 1.15699C6.88402 1.8978 6.5251 2.90255 6.5251 3.95021C6.5251 4.99787 6.88402 6.00262 7.5229 6.74343C8.16178 7.48423 9.02829 7.90042 9.93181 7.90042H48.2573L41.4439 53.1303C40.6749 54.3892 40.0987 55.7923 39.7405 57.278H31.9051C31.1638 54.4374 29.654 51.9488 27.5988 50.1801C25.5436 48.4114 23.052 47.4564 20.4926 47.4564C17.9332 47.4564 15.4417 48.4114 13.3865 50.1801C11.3312 51.9488 9.82139 54.4374 9.08013 57.278H7.20644L8.05812 51.5502C8.20754 50.53 8.00573 49.4825 7.49608 48.633C6.98643 47.7835 6.20965 47.1998 5.33275 47.0075C4.45289 46.8342 3.54954 47.0682 2.81692 47.6592C2.0843 48.2501 1.58092 49.1508 1.41503 50.1676L0.0523459 58.6606C-0.0523139 59.4729 0.000393852 60.3021 0.20664 61.0879C0.412886 61.8737 0.767491 62.5963 1.24469 63.2033C1.68404 63.8105 2.23082 64.3012 2.84798 64.6419C3.46514 64.9827 4.13827 65.1657 4.82174 65.1784H9.08013C9.82139 68.019 11.3312 70.5076 13.3865 72.2763C15.4417 74.045 17.9332 75 20.4926 75C23.052 75 25.5436 74.045 27.5988 72.2763C29.654 70.5076 31.1638 68.019 31.9051 65.1784H39.7405C40.4818 68.019 41.9916 70.5076 44.0469 72.2763C46.1021 74.045 48.5936 75 51.153 75C53.7125 75 56.204 74.045 58.2592 72.2763C60.3144 70.5076 61.8243 68.019 62.5655 65.1784H65.9722C67.2524 65.1502 68.4831 64.6004 69.4486 63.6253C70.4141 62.6502 71.0528 61.3121 71.2526 59.8456L75 34.5643L60.8621 12.0481ZM20.4926 67.1535C19.1373 67.1535 17.8376 66.5293 16.8793 65.418C15.9209 64.3068 15.3825 62.7997 15.3825 61.2282C15.3825 59.6567 15.9209 58.1496 16.8793 57.0384C17.8376 55.9272 19.1373 55.3029 20.4926 55.3029C21.8479 55.3029 23.1477 55.9272 24.106 57.0384C25.0643 58.1496 25.6027 59.6567 25.6027 61.2282C25.6027 62.7997 25.0643 64.3068 24.106 65.418C23.1477 66.5293 21.8479 67.1535 20.4926 67.1535ZM53.7081 17.7759H55.9224L65.9722 33.5768H51.3234L53.7081 17.7759ZM51.153 67.1535C49.7977 67.1535 48.498 66.5293 47.5397 65.418C46.5813 64.3068 46.043 62.7997 46.043 61.2282C46.043 59.6567 46.5813 58.1496 47.5397 57.0384C48.498 55.9272 49.7977 55.3029 51.153 55.3029C52.5083 55.3029 53.8081 55.9272 54.7664 57.0384C55.7247 58.1496 56.2631 59.6567 56.2631 61.2282C56.2631 62.7997 55.7247 64.3068 54.7664 65.418C53.8081 66.5293 52.5083 67.1535 51.153 67.1535ZM64.7799 57.278H62.5655C61.8326 54.4274 60.3263 51.9269 58.2703 50.1478C56.2143 48.3687 53.7184 47.406 51.153 47.4025H49.2793L50.131 41.2797H66.9942L64.7799 57.278Z" fill="#B2854F"/>
</svg>
