<svg width="500" height="345" viewBox="0 0 500 345" fill="none" xmlns="http://www.w3.org/2000/svg">
<path d="M416.947 9.17544L392.387 20.1644C390.456 21.0289 388.571 19.2087 387.59 18.3403C365.581 -1.18461 329.934 -6.13483 297.385 8.42809L114.003 90.4791C81.4149 105.06 61.3419 134.993 61.2794 164.45C61.2768 165.723 61.5476 168.193 59.467 169.123L34.8838 180.122C5.20335 193.403 -8.1396 228.355 5.14085 258.035C18.4213 287.716 53.3723 301.06 83.0528 287.78C83.0528 287.78 84.6478 287.566 85.4693 290.338C86.8013 294.829 87.1072 296.145 89.0733 300.541C107.094 340.819 160.305 356.338 207.687 335.139L417.371 241.32C464.754 220.12 488.467 170.18 470.618 129.827C469.222 126.67 468.487 124.59 465.717 120.813C463.252 117.453 465.114 116.833 465.114 116.833C494.796 103.553 508.139 68.6015 494.86 38.9197C481.58 9.23794 446.629 -4.105 416.947 9.17544ZM124.105 113.06L307.488 31.0075C326.709 22.409 347.181 22.8374 362.119 30.5557C363.184 31.1064 365.348 32.2626 363.269 33.1922L89.1293 155.851C86.5539 157.004 86.8833 155.512 87.05 154.779C90.8635 138.034 104.38 121.885 124.105 113.06ZM407.268 218.738L197.584 312.558C162.652 328.187 124.104 318.265 111.654 290.438C99.2029 262.612 117.492 227.259 152.424 211.629L362.108 117.81C397.039 102.18 435.587 112.103 448.037 139.929C460.487 167.756 442.199 203.109 407.268 218.738ZM450.459 46.8646C434.981 53.7899 425.113 53.5491 416.406 53.3355C408.494 53.1415 401.661 52.9749 389.68 58.3352C377.699 63.6969 373.27 68.9023 368.141 74.9319C362.498 81.5656 356.103 89.0834 340.624 96.0087C325.148 102.933 315.281 102.692 306.576 102.477C298.663 102.284 291.832 102.116 279.853 107.475C267.875 112.836 263.446 118.041 258.318 124.07C252.675 130.703 246.28 138.222 230.803 145.146C215.326 152.07 205.459 151.83 196.754 151.615C188.843 151.422 182.012 151.254 170.033 156.613C158.055 161.973 153.627 167.179 148.498 173.206C142.856 179.84 136.461 187.357 120.985 194.283C105.508 201.207 95.6406 200.966 86.9354 200.752C79.0244 200.558 72.1928 200.392 60.213 205.751C55.9477 207.66 50.9402 205.749 49.0314 201.483C47.1227 197.216 49.034 192.21 53.2994 190.301C68.7763 183.377 78.6442 183.618 87.3494 183.832C95.2604 184.026 102.093 184.192 114.073 178.833C126.052 173.474 130.48 168.269 135.607 162.24C141.249 155.607 147.645 148.088 163.12 141.164C178.597 134.239 188.463 134.48 197.17 134.695C205.081 134.888 211.912 135.056 223.891 129.697C235.87 124.336 240.298 119.131 245.427 113.103C251.069 106.469 257.464 98.9513 272.941 92.0259C288.418 85.1005 298.286 85.3427 306.99 85.5562C314.902 85.7489 321.734 85.9169 333.712 80.5578C345.692 75.1975 350.123 69.9908 355.25 63.9625C360.894 57.3288 367.29 49.8097 382.768 42.8843C398.246 35.959 408.114 36.1999 416.82 36.4134C424.733 36.6074 431.566 36.774 443.547 31.4137C447.812 29.5049 452.82 31.415 454.728 35.6817C456.637 39.9483 454.724 44.9558 450.459 46.8646Z" fill="#FFD183"/>
</svg>
