<svg width="120" height="79" viewBox="0 0 120 79" fill="none" xmlns="http://www.w3.org/2000/svg">
<path opacity="0.965" fill-rule="evenodd" clip-rule="evenodd" d="M68.3945 2.21483C68.9341 2.20313 69.4732 2.21485 70.0117 2.24999C70.0908 2.26751 70.1611 2.30267 70.2227 2.35546C69.5904 2.83541 69.0396 3.39791 68.5703 4.04296C68.4471 4.26599 68.3065 4.47693 68.1485 4.67577C65.2292 11.3912 60.6238 16.606 54.3321 20.3203C53.0049 21.0191 51.669 21.6987 50.3242 22.3594C49.5649 22.8726 48.9087 23.4937 48.3555 24.2226C48.0112 22.7118 48.3276 21.3525 49.3047 20.1445C49.7698 19.6087 50.2971 19.1516 50.8867 18.7734C56.2216 16.368 60.3817 12.6531 63.3672 7.6289C63.9408 6.48144 64.5502 5.35644 65.1953 4.2539C66.0391 3.20838 67.1054 2.52869 68.3945 2.21483Z" fill="white"/>
<path opacity="0.966" fill-rule="evenodd" clip-rule="evenodd" d="M73.1055 2.21483C75.689 1.95148 77.2945 3.07648 77.9219 5.58983C78.0818 6.51177 78.0584 7.42583 77.8516 8.33202C76.4039 7.816 74.9859 7.89805 73.5977 8.57811C72.4013 9.1885 71.4521 10.0674 70.75 11.2148C67.9258 17.4141 63.4141 21.9257 57.2148 24.75C55.0387 26.0669 53.9722 28.0005 54.0156 30.5508C54.0499 31.0039 54.1554 31.4375 54.332 31.8516C52.5699 32.2962 50.9527 31.9915 49.4805 30.9375C48.5929 30.116 48.1476 29.0964 48.1445 27.8789C48.3366 25.9358 49.2273 24.4007 50.8164 23.2734C59.2339 19.5903 65.3159 13.5552 69.0625 5.16796C69.9883 3.59647 71.336 2.6121 73.1055 2.21483ZM69.8008 7.76952C70.384 7.66658 70.63 7.90101 70.5391 8.47265C70 8.98825 69.461 9.50392 68.9219 10.0195C68.9339 10.5495 68.9925 11.0768 69.0977 11.6016C69.086 12.1641 68.8516 12.6093 68.3945 12.9375C67.7824 13.226 67.1847 13.5424 66.6016 13.8867C66.5117 14.5124 66.4648 15.1452 66.4609 15.7851C66.3155 16.3758 65.9523 16.7626 65.3711 16.9453C64.6832 17.1062 64.0035 17.2938 63.332 17.5078C63.2476 17.5713 63.1889 17.6533 63.1562 17.7539C63.0556 18.3914 62.868 19.0008 62.5938 19.582C62.3608 19.9152 62.0444 20.1144 61.6445 20.1797C61.0091 20.1962 60.3763 20.2431 59.7461 20.3203C59.3565 20.4388 59.0167 20.638 58.7266 20.918C58.4632 21.4681 58.182 22.0072 57.8828 22.5351C57.5028 23.0806 56.9754 23.3383 56.3008 23.3086C55.7982 23.2873 55.306 23.2053 54.8242 23.0625C54.5248 22.7282 54.5482 22.4235 54.8945 22.1484C55.3644 22.1446 55.8331 22.1797 56.3008 22.2539C56.4973 22.2572 56.6848 22.222 56.8633 22.1484C57.2533 21.521 57.6165 20.8765 57.9531 20.2148C58.4387 19.7434 59.0129 19.427 59.6758 19.2656C60.3064 19.1917 60.9392 19.1448 61.5742 19.125C61.6831 19.0396 61.7651 18.9342 61.8203 18.8086C61.9285 18.3377 62.0457 17.8689 62.1719 17.4023C62.3477 16.9453 62.6641 16.6289 63.1211 16.4531C63.6744 16.2768 64.2369 16.1362 64.8086 16.0312C64.9982 15.9775 65.1739 15.8954 65.3359 15.7851C65.4258 15.1594 65.4727 14.5266 65.4766 13.8867C65.5765 13.4406 65.8226 13.1008 66.2148 12.8672C66.799 12.587 67.3732 12.2941 67.9375 11.9883C68.0049 11.8688 68.04 11.7399 68.043 11.6016C67.9689 11.1451 67.8985 10.6881 67.832 10.2305C67.8507 9.8744 67.9562 9.54625 68.1484 9.24608C68.7242 8.77745 69.275 8.28526 69.8008 7.76952Z" fill="white"/>
<path opacity="0.988" fill-rule="evenodd" clip-rule="evenodd" d="M75.6367 9.0352C77.744 8.96939 79.0682 9.95376 79.6094 11.9883C79.8176 13.1854 79.7239 14.3573 79.3281 15.5039C75.5898 23.6485 69.6484 29.5899 61.5039 33.3282C60.1043 33.8129 58.698 33.8363 57.2852 33.3985C55.4795 32.5412 54.7647 31.1232 55.1406 29.1446C55.5374 27.6462 56.3929 26.4861 57.707 25.6641C64.0937 22.7461 68.7461 18.0938 71.6641 11.7071C72.6002 10.2263 73.9244 9.33564 75.6367 9.0352Z" fill="white"/>
<path d="M25.9075 53.2102H27.8592C28.5581 53.2102 29.1774 53.358 29.7172 53.6534C30.2598 53.9489 30.6845 54.3651 30.9913 54.902C31.301 55.4361 31.4558 56.0639 31.4558 56.7855C31.4558 57.4844 31.301 58.0937 30.9913 58.6136C30.6845 59.1335 30.2598 59.5384 29.7172 59.8281C29.1774 60.1151 28.5581 60.2585 27.8592 60.2585H25.9075C25.2058 60.2585 24.5836 60.1165 24.041 59.8324C23.4984 59.5455 23.0723 59.142 22.7626 58.6222C22.4558 58.1023 22.3024 57.4886 22.3024 56.7812C22.3024 56.0597 22.4572 55.4318 22.7669 54.8977C23.0794 54.3608 23.5069 53.946 24.0495 53.6534C24.5922 53.358 25.2115 53.2102 25.9075 53.2102ZM25.9075 54.7528C25.5325 54.7528 25.2015 54.8281 24.9146 54.9787C24.6305 55.1264 24.4089 55.3509 24.2498 55.652C24.0907 55.9531 24.0112 56.3295 24.0112 56.7812C24.0112 57.2131 24.0922 57.5724 24.2541 57.8594C24.4189 58.1463 24.6433 58.3608 24.9274 58.5028C25.2115 58.6449 25.5382 58.7159 25.9075 58.7159H27.872C28.2441 58.7159 28.5694 58.6435 28.8478 58.4986C29.1291 58.3537 29.3464 58.1378 29.4998 57.8509C29.6561 57.5639 29.7342 57.2088 29.7342 56.7855C29.7342 56.3338 29.6561 55.9574 29.4998 55.6562C29.3464 55.3551 29.1291 55.1293 28.8478 54.9787C28.5694 54.8281 28.2441 54.7528 27.872 54.7528H25.9075ZM27.7569 52.1193V61.358H26.0055V52.1193H27.7569ZM32.7811 61V54.4545H34.5964V61H32.7811ZM33.693 53.6108C33.4231 53.6108 33.1916 53.5213 32.9984 53.3423C32.8081 53.1605 32.7129 52.9432 32.7129 52.6903C32.7129 52.4403 32.8081 52.2259 32.9984 52.0469C33.1916 51.8651 33.4231 51.7741 33.693 51.7741C33.9629 51.7741 34.193 51.8651 34.3833 52.0469C34.5765 52.2259 34.6731 52.4403 34.6731 52.6903C34.6731 52.9432 34.5765 53.1605 34.3833 53.3423C34.193 53.5213 33.9629 53.6108 33.693 53.6108ZM36.0506 54.4545H37.785V59.5597H39.6301V54.4545H41.3645V59.5597H43.2097V54.4545H44.9441V61H36.0506V54.4545ZM49.1628 61V52.2727H54.954V53.794H51.008V55.4986H52.427C53.1174 55.4986 53.7125 55.6108 54.2125 55.8352C54.7154 56.0568 55.1032 56.3707 55.3759 56.777C55.6486 57.1832 55.785 57.6619 55.785 58.2131C55.785 58.7614 55.6486 59.2457 55.3759 59.6662C55.1032 60.0838 54.7154 60.4105 54.2125 60.6463C53.7125 60.8821 53.1174 61 52.427 61H49.1628ZM51.008 59.517H52.427C52.7566 59.517 53.035 59.4574 53.2623 59.3381C53.4895 59.2159 53.6614 59.0554 53.7779 58.8565C53.8972 58.6548 53.9569 58.4347 53.9569 58.196C53.9569 57.8494 53.8248 57.5568 53.5605 57.3182C53.2992 57.0767 52.9213 56.956 52.427 56.956H51.008V59.517ZM58.0659 63.4545C57.8358 63.4545 57.6199 63.4361 57.4181 63.3991C57.2193 63.3651 57.0545 63.321 56.9238 63.267L57.3329 61.9119C57.546 61.9773 57.7377 62.0128 57.9082 62.0185C58.0815 62.0241 58.2306 61.9844 58.3556 61.8991C58.4835 61.8139 58.5872 61.669 58.6667 61.4645L58.7733 61.1875L56.4252 54.4545H58.3343L59.6895 59.2614H59.7576L61.1255 54.4545H63.0474L60.5034 61.7074C60.3812 62.0597 60.215 62.3665 60.0048 62.6278C59.7974 62.892 59.5346 63.0952 59.2164 63.2372C58.8983 63.3821 58.5147 63.4545 58.0659 63.4545ZM63.9764 63.4545V54.4545H65.7662V55.554H65.8471C65.9267 55.3778 66.0417 55.1989 66.1923 55.017C66.3457 54.8324 66.5446 54.679 66.7889 54.5568C67.036 54.4318 67.3429 54.3693 67.7093 54.3693C68.1866 54.3693 68.627 54.4943 69.0304 54.7443C69.4338 54.9915 69.7562 55.3651 69.9977 55.8651C70.2392 56.3622 70.3599 56.9858 70.3599 57.7358C70.3599 58.4659 70.242 59.0824 70.0062 59.5852C69.7733 60.0852 69.4551 60.4645 69.0517 60.723C68.6511 60.9787 68.2022 61.1065 67.7051 61.1065C67.3528 61.1065 67.0531 61.0483 66.8059 60.9318C66.5616 60.8153 66.3613 60.669 66.2051 60.4929C66.0488 60.3139 65.9295 60.1335 65.8471 59.9517H65.7917V63.4545H63.9764ZM65.7534 57.7273C65.7534 58.1165 65.8074 58.456 65.9153 58.7457C66.0233 59.0355 66.1795 59.2614 66.3841 59.4233C66.5886 59.5824 66.8372 59.6619 67.1298 59.6619C67.4252 59.6619 67.6752 59.581 67.8798 59.419C68.0843 59.2543 68.2392 59.027 68.3443 58.7372C68.4522 58.4446 68.5062 58.108 68.5062 57.7273C68.5062 57.3494 68.4537 57.017 68.3485 56.7301C68.2434 56.4432 68.0886 56.2187 67.8841 56.0568C67.6795 55.8949 67.4281 55.8139 67.1298 55.8139C66.8343 55.8139 66.5843 55.892 66.3798 56.0483C66.1781 56.2045 66.0233 56.4261 65.9153 56.7131C65.8074 57 65.7534 57.3381 65.7534 57.7273ZM76.0531 54.4545V55.8821H73.3343V61H71.5701V54.4545H76.0531ZM79.9086 61.1278C79.2353 61.1278 78.6557 60.9915 78.1699 60.7188C77.687 60.4432 77.3148 60.054 77.0534 59.5511C76.7921 59.0455 76.6614 58.4474 76.6614 57.7571C76.6614 57.0838 76.7921 56.4929 77.0534 55.9844C77.3148 55.4759 77.6827 55.0795 78.1571 54.7955C78.6344 54.5114 79.1941 54.3693 79.8361 54.3693C80.2679 54.3693 80.6699 54.4389 81.0421 54.5781C81.4171 54.7145 81.7438 54.9205 82.0222 55.196C82.3034 55.4716 82.5222 55.8182 82.6784 56.2358C82.8347 56.6506 82.9128 57.1364 82.9128 57.6932V58.1918H77.3858V57.0668H81.204C81.204 56.8054 81.1472 56.5739 81.0336 56.3722C80.9199 56.1705 80.7623 56.0128 80.5605 55.8991C80.3617 55.7827 80.1301 55.7244 79.8659 55.7244C79.5904 55.7244 79.3461 55.7884 79.133 55.9162C78.9228 56.0412 78.758 56.2102 78.6387 56.4233C78.5194 56.6335 78.4583 56.8679 78.4554 57.1264V58.196C78.4554 58.5199 78.5151 58.7997 78.6344 59.0355C78.7566 59.2713 78.9284 59.4531 79.15 59.581C79.3716 59.7088 79.6344 59.7727 79.9384 59.7727C80.1401 59.7727 80.3248 59.7443 80.4924 59.6875C80.66 59.6307 80.8034 59.5455 80.9228 59.4318C81.0421 59.3182 81.133 59.179 81.1955 59.0142L82.8745 59.125C82.7892 59.5284 82.6145 59.8807 82.3503 60.1818C82.089 60.4801 81.7509 60.7131 81.3361 60.8807C80.9242 61.0455 80.4483 61.1278 79.9086 61.1278ZM84.0975 63.4545V54.4545H85.8873V55.554H85.9682C86.0478 55.3778 86.1628 55.1989 86.3134 55.017C86.4668 54.8324 86.6657 54.679 86.91 54.5568C87.1571 54.4318 87.464 54.3693 87.8304 54.3693C88.3077 54.3693 88.748 54.4943 89.1515 54.7443C89.5549 54.9915 89.8773 55.3651 90.1188 55.8651C90.3603 56.3622 90.481 56.9858 90.481 57.7358C90.481 58.4659 90.3631 59.0824 90.1273 59.5852C89.8944 60.0852 89.5762 60.4645 89.1728 60.723C88.7722 60.9787 88.3233 61.1065 87.8262 61.1065C87.4739 61.1065 87.1742 61.0483 86.927 60.9318C86.6827 60.8153 86.4824 60.669 86.3262 60.4929C86.1699 60.3139 86.0506 60.1335 85.9682 59.9517H85.9128V63.4545H84.0975ZM85.8745 57.7273C85.8745 58.1165 85.9284 58.456 86.0364 58.7457C86.1444 59.0355 86.3006 59.2614 86.5051 59.4233C86.7097 59.5824 86.9583 59.6619 87.2509 59.6619C87.5463 59.6619 87.7963 59.581 88.0009 59.419C88.2054 59.2543 88.3603 59.027 88.4654 58.7372C88.5733 58.4446 88.6273 58.108 88.6273 57.7273C88.6273 57.3494 88.5748 57.017 88.4696 56.7301C88.3645 56.4432 88.2097 56.2187 88.0051 56.0568C87.8006 55.8949 87.5492 55.8139 87.2509 55.8139C86.9554 55.8139 86.7054 55.892 86.5009 56.0483C86.2992 56.2045 86.1444 56.4261 86.0364 56.7131C85.9284 57 85.8745 57.3381 85.8745 57.7273ZM93.4256 58.6051L95.7821 54.4545H97.5719V61H95.8418V56.8366L93.4938 61H91.6912V54.4545H93.4256V58.6051ZM35.2308 67.2727L36.9908 70.2472H37.0589L38.8274 67.2727H40.9112L38.2479 71.6364L40.9709 76H38.8487L37.0589 73.0213H36.9908L35.201 76H33.0874L35.8189 71.6364L33.1385 67.2727H35.2308ZM44.6623 76.1278C44.0004 76.1278 43.4279 75.9872 42.945 75.706C42.4648 75.4219 42.0941 75.027 41.8327 74.5213C41.5714 74.0128 41.4407 73.4233 41.4407 72.7528C41.4407 72.0767 41.5714 71.4858 41.8327 70.9801C42.0941 70.4716 42.4648 70.0767 42.945 69.7955C43.4279 69.5114 44.0004 69.3693 44.6623 69.3693C45.3242 69.3693 45.8952 69.5114 46.3754 69.7955C46.8583 70.0767 47.2305 70.4716 47.4918 70.9801C47.7532 71.4858 47.8839 72.0767 47.8839 72.7528C47.8839 73.4233 47.7532 74.0128 47.4918 74.5213C47.2305 75.027 46.8583 75.4219 46.3754 75.706C45.8952 75.9872 45.3242 76.1278 44.6623 76.1278ZM44.6708 74.7216C44.9719 74.7216 45.2234 74.6364 45.4251 74.4659C45.6268 74.2926 45.7788 74.0568 45.881 73.7585C45.9862 73.4602 46.0387 73.1207 46.0387 72.7401C46.0387 72.3594 45.9862 72.0199 45.881 71.7216C45.7788 71.4233 45.6268 71.1875 45.4251 71.0142C45.2234 70.8409 44.9719 70.7543 44.6708 70.7543C44.3668 70.7543 44.1112 70.8409 43.9038 71.0142C43.6992 71.1875 43.5444 71.4233 43.4393 71.7216C43.337 72.0199 43.2859 72.3594 43.2859 72.7401C43.2859 73.1207 43.337 73.4602 43.4393 73.7585C43.5444 74.0568 43.6992 74.2926 43.9038 74.4659C44.1112 74.6364 44.3668 74.7216 44.6708 74.7216ZM48.4304 70.8821V69.4545H54.3622V70.8821H52.2528V76H50.5227V70.8821H48.4304ZM57.8011 78.1051V74.5298H58.3935C58.5952 74.3849 58.7798 74.1804 58.9474 73.9162C59.1151 73.6491 59.2585 73.2812 59.3778 72.8125C59.4972 72.3409 59.5824 71.7244 59.6335 70.9631L59.8807 67.2727H65.6548V74.5298H66.6094V78.0966H64.8366V76H59.5739V78.1051H57.8011ZM60.5241 74.5298H63.8821V68.794H61.5426L61.4062 70.9631C61.3693 71.5398 61.3082 72.0511 61.223 72.4972C61.1406 72.9432 61.0398 73.3338 60.9205 73.669C60.804 74.0014 60.6719 74.2884 60.5241 74.5298ZM70.6545 76.1278C69.9925 76.1278 69.4201 75.9872 68.9371 75.706C68.457 75.4219 68.0863 75.027 67.8249 74.5213C67.5636 74.0128 67.4329 73.4233 67.4329 72.7528C67.4329 72.0767 67.5636 71.4858 67.8249 70.9801C68.0863 70.4716 68.457 70.0767 68.9371 69.7955C69.4201 69.5114 69.9925 69.3693 70.6545 69.3693C71.3164 69.3693 71.8874 69.5114 72.3675 69.7955C72.8505 70.0767 73.2227 70.4716 73.484 70.9801C73.7454 71.4858 73.8761 72.0767 73.8761 72.7528C73.8761 73.4233 73.7454 74.0128 73.484 74.5213C73.2227 75.027 72.8505 75.4219 72.3675 75.706C71.8874 75.9872 71.3164 76.1278 70.6545 76.1278ZM70.663 74.7216C70.9641 74.7216 71.2156 74.6364 71.4173 74.4659C71.619 74.2926 71.771 74.0568 71.8732 73.7585C71.9783 73.4602 72.0309 73.1207 72.0309 72.7401C72.0309 72.3594 71.9783 72.0199 71.8732 71.7216C71.771 71.4233 71.619 71.1875 71.4173 71.0142C71.2156 70.8409 70.9641 70.7543 70.663 70.7543C70.359 70.7543 70.1033 70.8409 69.896 71.0142C69.6914 71.1875 69.5366 71.4233 69.4315 71.7216C69.3292 72.0199 69.2781 72.3594 69.2781 72.7401C69.2781 73.1207 69.3292 73.4602 69.4315 73.7585C69.5366 74.0568 69.6914 74.2926 69.896 74.4659C70.1033 74.6364 70.359 74.7216 70.663 74.7216ZM79.5394 69.4545V70.8821H76.8207V76H75.0565V69.4545H79.5394ZM82.3807 73.6051L84.7372 69.4545H86.527V76H84.7969V71.8366L82.4489 76H80.6463V69.4545H82.3807V73.6051Z" fill="white"/>
</svg>
