<svg width="36" height="36" viewBox="0 0 36 36" fill="none" xmlns="http://www.w3.org/2000/svg">
<path opacity="0.965" fill-rule="evenodd" clip-rule="evenodd" d="M22.3943 2.21483C22.9339 2.20313 23.473 2.21485 24.0115 2.24999C24.0905 2.26751 24.1608 2.30267 24.2224 2.35546C23.5902 2.83541 23.0394 3.39791 22.5701 4.04296C22.4469 4.26599 22.3063 4.47693 22.1482 4.67577C19.229 11.3912 14.6235 16.606 8.33181 20.3203C7.00465 21.0191 5.66871 21.6987 4.324 22.3594C3.56469 22.8726 2.90844 23.4937 2.35525 24.2226C2.01098 22.7118 2.32739 21.3525 3.30446 20.1445C3.76952 19.6087 4.29686 19.1516 4.8865 18.7734C10.2213 16.368 14.3815 12.6531 17.367 7.6289C17.9406 6.48144 18.55 5.35644 19.1951 4.2539C20.0388 3.20838 21.1052 2.52869 22.3943 2.21483Z" fill="#FBCD7D"/>
<path opacity="0.966" fill-rule="evenodd" clip-rule="evenodd" d="M27.1055 2.21483C29.689 1.95148 31.2945 3.07648 31.9219 5.58983C32.0818 6.51177 32.0584 7.42583 31.8516 8.33202C30.4039 7.816 28.9859 7.89805 27.5977 8.57811C26.4013 9.1885 25.4521 10.0674 24.75 11.2148C21.9258 17.4141 17.4141 21.9257 11.2148 24.75C9.03867 26.0669 7.97224 28.0005 8.01562 30.5508C8.04994 31.0039 8.15541 31.4375 8.33203 31.8516C6.56985 32.2962 4.95266 31.9915 3.48047 30.9375C2.59295 30.116 2.14764 29.0964 2.14453 27.8789C2.33664 25.9358 3.22726 24.4007 4.81641 23.2734C13.2339 19.5903 19.3159 13.5552 23.0625 5.16796C23.9883 3.59647 25.336 2.6121 27.1055 2.21483ZM23.8008 7.76952C24.384 7.66658 24.63 7.90101 24.5391 8.47265C24 8.98825 23.461 9.50392 22.9219 10.0195C22.9339 10.5495 22.9925 11.0768 23.0977 11.6016C23.086 12.1641 22.8516 12.6093 22.3945 12.9375C21.7824 13.226 21.1847 13.5424 20.6016 13.8867C20.5117 14.5124 20.4648 15.1452 20.4609 15.7851C20.3155 16.3758 19.9523 16.7626 19.3711 16.9453C18.6832 17.1062 18.0035 17.2938 17.332 17.5078C17.2476 17.5713 17.1889 17.6533 17.1562 17.7539C17.0556 18.3914 16.868 19.0008 16.5938 19.582C16.3608 19.9152 16.0444 20.1144 15.6445 20.1797C15.0091 20.1962 14.3763 20.2431 13.7461 20.3203C13.3565 20.4388 13.0167 20.638 12.7266 20.918C12.4632 21.4681 12.182 22.0072 11.8828 22.5351C11.5028 23.0806 10.9754 23.3383 10.3008 23.3086C9.79819 23.2873 9.306 23.2053 8.82422 23.0625C8.52476 22.7282 8.54817 22.4235 8.89453 22.1484C9.36443 22.1446 9.83313 22.1797 10.3008 22.2539C10.4973 22.2572 10.6848 22.222 10.8633 22.1484C11.2533 21.521 11.6165 20.8765 11.9531 20.2148C12.4387 19.7434 13.0129 19.427 13.6758 19.2656C14.3064 19.1917 14.9392 19.1448 15.5742 19.125C15.6831 19.0396 15.7651 18.9342 15.8203 18.8086C15.9285 18.3377 16.0457 17.8689 16.1719 17.4023C16.3477 16.9453 16.6641 16.6289 17.1211 16.4531C17.6744 16.2768 18.2369 16.1362 18.8086 16.0312C18.9982 15.9775 19.1739 15.8954 19.3359 15.7851C19.4258 15.1594 19.4727 14.5266 19.4766 13.8867C19.5765 13.4406 19.8226 13.1008 20.2148 12.8672C20.799 12.587 21.3732 12.2941 21.9375 11.9883C22.0049 11.8688 22.04 11.7399 22.043 11.6016C21.9689 11.1451 21.8985 10.6881 21.832 10.2305C21.8507 9.8744 21.9562 9.54625 22.1484 9.24608C22.7242 8.77745 23.275 8.28526 23.8008 7.76952Z" fill="#FBCD7D"/>
<path opacity="0.988" fill-rule="evenodd" clip-rule="evenodd" d="M29.6367 9.0352C31.744 8.96939 33.0682 9.95376 33.6094 11.9883C33.8176 13.1854 33.7239 14.3573 33.3281 15.5039C29.5898 23.6485 23.6484 29.5899 15.5039 33.3282C14.1043 33.8129 12.698 33.8363 11.2852 33.3985C9.47955 32.5412 8.76468 31.1232 9.14064 29.1446C9.53741 27.6462 10.3929 26.4861 11.707 25.6641C18.0937 22.7461 22.7461 18.0938 25.6641 11.7071C26.6002 10.2263 27.9244 9.33564 29.6367 9.0352Z" fill="#FBCD7D"/>
</svg>
