<svg width="75" height="75" viewBox="0 0 75 75" fill="none" xmlns="http://www.w3.org/2000/svg">
<path fill-rule="evenodd" clip-rule="evenodd" d="M37.5001 7.5C32.0469 7.5 27.2214 11.2616 25.5714 16.7987L22.755 26.25H25.1799H49.8201H52.245L49.4287 16.7987C47.7785 11.2616 42.9529 7.5 37.5001 7.5ZM59.6311 26.25L56.1385 14.5294C53.5605 5.87752 46.0206 0 37.5001 0C28.9794 0 21.4395 5.87752 18.8614 14.5294L15.3687 26.25H7.04468C2.3207 26.25 -1.06275 31.1085 0.30723 35.925L4.26455 49.8375L9.14989 67.0125C10.4992 71.7563 14.6035 75 19.2561 75H30.4599H44.5401H55.7439C60.3963 75 64.5006 71.7563 65.8498 67.0125L70.7352 49.8375L74.6928 35.925C76.0628 31.1085 72.6793 26.25 67.9551 26.25H59.6311ZM17.9444 33.75H7.04468L10.2447 45H23.5474L22.1074 33.75H17.9444ZM29.2125 33.75L30.6527 45H44.3472L45.7872 33.75H29.2125ZM52.8924 33.75L51.4527 45H64.7551L67.9551 33.75H57.0555H52.8924ZM62.622 52.5H50.4924L48.5726 67.5H55.7439C57.2948 67.5 58.6627 66.4189 59.1126 64.8375L62.622 52.5ZM41.4675 67.5L43.3873 52.5H31.6126L33.5324 67.5H41.4675ZM26.4274 67.5L24.5074 52.5H12.378L15.8873 64.8375C16.3371 66.4189 17.7052 67.5 19.2561 67.5H26.4274Z" fill="#B2854F"/>
</svg>
