<svg width="45" height="45" viewBox="0 0 45 45" fill="none" xmlns="http://www.w3.org/2000/svg">
<circle cx="22.5" cy="22.5" r="22" stroke="#DBB36E"/>
<g clip-path="url(#clip0_573_993)">
<path d="M32.8125 22.1252C32.5639 22.1252 32.3254 22.0264 32.1496 21.8506C31.9738 21.6748 31.875 21.4363 31.875 21.1877C31.873 19.1992 31.0822 17.2927 29.6761 15.8866C28.27 14.4805 26.3635 13.6897 24.375 13.6877C24.1264 13.6877 23.8879 13.5889 23.7121 13.4131C23.5363 13.2373 23.4375 12.9988 23.4375 12.7502C23.4375 12.5015 23.5363 12.2631 23.7121 12.0873C23.8879 11.9115 24.1264 11.8127 24.375 11.8127C26.8606 11.8154 29.2436 12.804 31.0011 14.5616C32.7587 16.3191 33.7473 18.7021 33.75 21.1877C33.75 21.4363 33.6513 21.6748 33.4754 21.8506C33.2996 22.0264 33.0612 22.1252 32.8125 22.1252ZM30 21.1877C30 19.6958 29.4074 18.2651 28.3525 17.2102C27.2976 16.1553 25.8669 15.5627 24.375 15.5627C24.1264 15.5627 23.8879 15.6615 23.7121 15.8373C23.5363 16.0131 23.4375 16.2515 23.4375 16.5002C23.4375 16.7488 23.5363 16.9873 23.7121 17.1631C23.8879 17.3389 24.1264 17.4377 24.375 17.4377C25.3696 17.4377 26.3234 17.8328 27.0267 18.536C27.7299 19.2393 28.125 20.1931 28.125 21.1877C28.125 21.4363 28.2238 21.6748 28.3996 21.8506C28.5754 22.0264 28.8139 22.1252 29.0625 22.1252C29.3112 22.1252 29.5496 22.0264 29.7254 21.8506C29.9013 21.6748 30 21.4363 30 21.1877ZM32.0466 32.5914L32.8997 31.608C33.4427 31.0632 33.7476 30.3254 33.7476 29.5563C33.7476 28.7871 33.4427 28.0493 32.8997 27.5046C32.8707 27.4755 30.615 25.7402 30.615 25.7402C30.0737 25.2249 29.3546 24.9379 28.6072 24.939C27.8598 24.94 27.1415 25.229 26.6016 25.7458L24.8147 27.2514C23.3561 26.6478 22.0312 25.7619 20.9159 24.6447C19.8007 23.5276 18.9171 22.2011 18.316 20.7414L19.816 18.9602C20.3332 18.4203 20.6225 17.7019 20.6237 16.9543C20.6249 16.2067 20.338 15.4873 19.8225 14.9458C19.8225 14.9458 18.0853 12.693 18.0563 12.6639C17.5214 12.1256 16.7962 11.8193 16.0373 11.8112C15.2784 11.8031 14.5469 12.0939 14.0007 12.6208L12.9225 13.5583C6.55316 20.9477 20.2688 34.5574 27.9019 34.3127C28.6727 34.3172 29.4366 34.1671 30.1484 33.8715C30.8603 33.5759 31.5057 33.1406 32.0466 32.5914Z" fill="#DBB36E"/>
</g>
<defs>
<clipPath id="clip0_573_993">
<rect width="22.5" height="22.5" fill="white" transform="translate(11.25 11.8125)"/>
</clipPath>
</defs>
</svg>
