<svg width="45" height="45" viewBox="0 0 45 45" fill="none" xmlns="http://www.w3.org/2000/svg">
<circle cx="22.5" cy="22.5" r="22" stroke="white"/>
<g clip-path="url(#clip0_29_532)">
<path d="M32.8125 22.1249C32.5638 22.1249 32.3254 22.0262 32.1496 21.8504C31.9737 21.6745 31.875 21.4361 31.875 21.1874C31.873 19.1989 31.0822 17.2924 29.6761 15.8863C28.27 14.4802 26.3635 13.6894 24.375 13.6874C24.1263 13.6874 23.8879 13.5887 23.7121 13.4129C23.5362 13.237 23.4375 12.9986 23.4375 12.7499C23.4375 12.5013 23.5362 12.2628 23.7121 12.087C23.8879 11.9112 24.1263 11.8124 24.375 11.8124C26.8605 11.8152 29.2435 12.8038 31.0011 14.5613C32.7586 16.3189 33.7472 18.7019 33.75 21.1874C33.75 21.4361 33.6512 21.6745 33.4754 21.8504C33.2996 22.0262 33.0611 22.1249 32.8125 22.1249ZM30 21.1874C30 19.6956 29.4073 18.2649 28.3524 17.21C27.2976 16.1551 25.8668 15.5624 24.375 15.5624C24.1263 15.5624 23.8879 15.6612 23.7121 15.837C23.5362 16.0128 23.4375 16.2513 23.4375 16.4999C23.4375 16.7486 23.5362 16.987 23.7121 17.1629C23.8879 17.3387 24.1263 17.4374 24.375 17.4374C25.3695 17.4374 26.3234 17.8325 27.0266 18.5358C27.7299 19.2391 28.125 20.1929 28.125 21.1874C28.125 21.4361 28.2237 21.6745 28.3996 21.8504C28.5754 22.0262 28.8138 22.1249 29.0625 22.1249C29.3111 22.1249 29.5496 22.0262 29.7254 21.8504C29.9012 21.6745 30 21.4361 30 21.1874ZM32.0465 32.5912L32.8997 31.6078C33.4427 31.063 33.7476 30.3252 33.7476 29.556C33.7476 28.7869 33.4427 28.0491 32.8997 27.5043C32.8706 27.4753 30.615 25.7399 30.615 25.7399C30.0736 25.2246 29.3545 24.9377 28.6071 24.9387C27.8597 24.9398 27.1414 25.2287 26.6015 25.7456L24.8147 27.2512C23.3561 26.6475 22.0311 25.7617 20.9159 24.6445C19.8006 23.5273 18.917 22.2008 18.3159 20.7412L19.8159 18.9599C20.3331 18.4201 20.6224 17.7017 20.6237 16.9541C20.6249 16.2064 20.3379 15.4871 19.8225 14.9456C19.8225 14.9456 18.0853 12.6928 18.0562 12.6637C17.5213 12.1253 16.7961 11.819 16.0372 11.811C15.2784 11.8029 14.5468 12.0937 14.0006 12.6206L12.9225 13.5581C6.5531 20.9474 20.2687 34.5571 27.9018 34.3124C28.6726 34.3169 29.4365 34.1669 30.1484 33.8713C30.8603 33.5756 31.5057 33.1404 32.0465 32.5912Z" fill="white"/>
</g>
<defs>
<clipPath id="clip0_29_532">
<rect width="22.5" height="22.5" fill="white" transform="translate(11.25 11.8125)"/>
</clipPath>
</defs>
</svg>
