<svg width="500" height="500" viewBox="0 0 500 500" fill="none" xmlns="http://www.w3.org/2000/svg">
<path fill-rule="evenodd" clip-rule="evenodd" d="M170.436 53.4495C164.665 63.5826 159.457 76.1351 154.5 90.9393C116.207 194.677 56.9741 346.346 28.3801 419.167C15.3945 452.236 47.0251 485.34 80.6493 473.886C153.916 448.925 305.471 397.644 409.069 364.988L409.383 364.886C424.248 359.938 436.79 354.861 446.856 349.252C456.819 343.702 465.731 336.884 471.721 327.807C485.39 307.096 477.815 285.413 468.775 268.654C411.9 163.217 340.802 89.1149 252.017 32.7149C243.537 27.3293 234.044 22.7557 223.787 21.3099C212.794 19.7601 201.999 21.9726 192.285 28.3976C183.191 34.413 176.185 43.3551 170.436 53.4495ZM314.4 189.407C281.469 154.267 245.61 124.573 199.068 90.2607C201.702 83.6472 204.226 78.313 206.643 74.0695C210.656 67.0218 213.698 64.1909 215.271 63.1501C216.225 62.519 216.719 62.3922 217.971 62.5684C219.956 62.8486 223.662 64.0663 229.675 67.8853C312.375 120.42 378.571 189.194 432.104 288.436C439.56 302.261 437.152 304.652 436.956 304.844C436.09 306.154 433.519 308.986 426.577 312.854C422.627 315.054 417.69 317.361 411.579 319.794C377.031 264.863 347.442 224.665 314.4 189.407ZM283.996 217.898C312.94 248.782 339.544 284.275 370.879 333.402C268.769 366.075 134.624 411.479 67.2127 434.444L67.1789 434.454L67.1518 434.427L67.1639 434.396C93.4768 367.386 145.896 233.196 184.062 131.016C224.746 161.459 255.704 187.708 283.996 217.898ZM208.333 270.834C231.346 270.834 250 252.179 250 229.167C250 206.155 231.346 187.501 208.333 187.501C185.321 187.501 166.667 206.155 166.667 229.167C166.667 252.179 185.321 270.834 208.333 270.834ZM208.333 333.334C208.333 356.346 189.678 375 166.667 375C143.655 375 125 356.346 125 333.334C125 310.321 143.655 291.667 166.667 291.667C189.678 291.667 208.333 310.321 208.333 333.334ZM270.833 354.167C293.846 354.167 312.5 335.513 312.5 312.5C312.5 289.488 293.846 270.834 270.833 270.834C247.821 270.834 229.167 289.488 229.167 312.5C229.167 335.513 247.821 354.167 270.833 354.167Z" fill="#FFD183"/>
</svg>
