<svg width="36" height="36" viewBox="0 0 36 36" fill="none" xmlns="http://www.w3.org/2000/svg">
<g clip-path="url(#clip0_73_398)">
<path opacity="0.984" fill-rule="evenodd" clip-rule="evenodd" d="M11.3554 -0.0351562C11.7772 -0.0351562 12.1991 -0.0351562 12.621 -0.0351562C22.7693 3.21038 30.0702 9.67915 34.5233 19.3711C35.0545 20.6489 35.5349 21.9379 35.9647 23.2383C35.9647 23.6836 35.9647 24.1289 35.9647 24.5742C35.2991 26.4674 33.9632 27.276 31.9569 27C30.9951 26.7481 30.3037 26.1739 29.8827 25.2773C26.6504 15.5294 20.1465 9.07242 10.371 5.90625C8.96804 4.90835 8.5345 3.58412 9.07021 1.93359C9.52239 0.906504 10.2841 0.250253 11.3554 -0.0351562Z" fill="#FBCD7D"/>
<path opacity="0.977" fill-rule="evenodd" clip-rule="evenodd" d="M1.37109 35.9648C1.13672 35.9648 0.902341 35.9648 0.667969 35.9648C0.391491 35.8058 0.157116 35.5949 -0.0351562 35.332C-0.0351562 35.0508 -0.0351562 34.7695 -0.0351562 34.4883C1.66789 29.7911 3.35539 25.0801 5.02734 20.3555C5.05078 20.3321 5.07422 20.3086 5.09766 20.2852C7.31939 21.3544 9.35845 21.0849 11.2148 19.4766C13.2527 17.116 13.3347 14.6902 11.4609 12.1992C10.6123 11.3353 9.5928 10.7728 8.40234 10.5117C8.71003 9.57677 9.03818 8.65104 9.38672 7.73438C13.6811 9.17761 17.5248 11.3807 20.918 14.3438C24.4711 17.7467 26.8851 21.8249 28.1602 26.5781C24.4597 27.8624 20.7565 29.1397 17.0508 30.4102C16.6856 27.2443 14.9161 25.5099 11.7422 25.207C9.3536 25.392 7.71293 26.5873 6.82031 28.793C6.28417 30.5409 6.5537 32.1465 7.62891 33.6094C5.5411 34.4028 3.45516 35.188 1.37109 35.9648ZM15.9258 12.5508C16.1743 12.5896 16.4087 12.6716 16.6289 12.7969C17.3906 13.5586 18.1524 14.3203 18.9141 15.082C19.2244 15.5962 19.1659 16.0767 18.7383 16.5234C18.3741 16.7239 17.9991 16.7474 17.6133 16.5938C16.6851 15.7828 15.8297 14.9039 15.0469 13.957C14.8977 13.199 15.1907 12.7302 15.9258 12.5508ZM20.0742 18.8789C22.0247 19.0481 23.1263 20.1028 23.3789 22.043C23.0634 24.2454 21.7978 25.265 19.582 25.1016C17.5439 24.4124 16.7821 23.0179 17.2969 20.918C17.8594 19.7332 18.7852 19.0535 20.0742 18.8789ZM13.8164 20.9883C14.8035 21.2048 15.0964 21.7673 14.6953 22.6758C14.2194 23.0996 13.7154 23.1347 13.1836 22.7812C12.6524 21.9116 12.8633 21.3139 13.8164 20.9883Z" fill="#FBCD7D"/>
<path opacity="0.966" fill-rule="evenodd" clip-rule="evenodd" d="M7.69922 12.5508C9.05084 12.6232 10.0001 13.2794 10.5469 14.5195C11.0958 16.3389 10.545 17.71 8.89453 18.6328C7.85264 19.0164 6.84484 18.9461 5.87109 18.4219C5.81086 18.3734 5.76399 18.3149 5.73047 18.2461C6.38725 16.346 7.04348 14.4476 7.69922 12.5508Z" fill="#FBCD7D"/>
<path opacity="0.926" fill-rule="evenodd" clip-rule="evenodd" d="M20.1443 20.918C20.8607 20.9547 21.2591 21.3296 21.3396 22.043C21.1477 22.9939 20.5852 23.3104 19.6521 22.9922C19.1597 22.5882 19.0308 22.0842 19.2654 21.4805C19.4789 21.1603 19.7718 20.9728 20.1443 20.918Z" fill="#FBCD7D"/>
<path opacity="0.971" fill-rule="evenodd" clip-rule="evenodd" d="M11.6369 27.2461C13.9857 27.4737 15.0756 28.7627 14.9064 31.1133C13.2008 31.7365 11.4898 32.3459 9.77359 32.9414C8.73261 32.0445 8.38105 30.9195 8.7189 29.5664C9.20996 28.1793 10.1826 27.4058 11.6369 27.2461Z" fill="#FBCD7D"/>
</g>
<defs>
<clipPath id="clip0_73_398">
<rect width="36" height="36" fill="white"/>
</clipPath>
</defs>
</svg>
