<svg width="37" height="73" viewBox="0 0 37 73" fill="none" xmlns="http://www.w3.org/2000/svg">
<g clip-path="url(#clip0_69_507)">
<path opacity="0.984" fill-rule="evenodd" clip-rule="evenodd" d="M12.3555 -0.0351562C12.7774 -0.0351562 13.1992 -0.0351562 13.6211 -0.0351562C23.7695 3.21038 31.0703 9.67915 35.5235 19.3711C36.0546 20.6489 36.535 21.9379 36.9649 23.2383C36.9649 23.6836 36.9649 24.1289 36.9649 24.5742C36.2992 26.4674 34.9633 27.276 32.957 27C31.9952 26.7481 31.3038 26.1739 30.8828 25.2773C27.6506 15.5294 21.1467 9.07242 11.3711 5.90625C9.96817 4.90835 9.53462 3.58412 10.0703 1.93359C10.5225 0.906504 11.2842 0.250253 12.3555 -0.0351562Z" fill="white"/>
<path opacity="0.977" fill-rule="evenodd" clip-rule="evenodd" d="M2.37109 35.9648C2.13672 35.9648 1.90234 35.9648 1.66797 35.9648C1.39149 35.8058 1.15712 35.5949 0.964844 35.332C0.964844 35.0508 0.964844 34.7695 0.964844 34.4883C2.66789 29.7911 4.35539 25.0801 6.02734 20.3555C6.05078 20.3321 6.07422 20.3086 6.09766 20.2852C8.31939 21.3544 10.3585 21.0849 12.2148 19.4766C14.2527 17.116 14.3347 14.6902 12.4609 12.1992C11.6123 11.3353 10.5928 10.7728 9.40234 10.5117C9.71003 9.57677 10.0382 8.65104 10.3867 7.73438C14.6811 9.17761 18.5248 11.3807 21.918 14.3438C25.4711 17.7467 27.8851 21.8249 29.1602 26.5781C25.4597 27.8624 21.7565 29.1397 18.0508 30.4102C17.6856 27.2443 15.9161 25.5099 12.7422 25.207C10.3536 25.392 8.71293 26.5873 7.82031 28.793C7.28417 30.5409 7.5537 32.1465 8.62891 33.6094C6.5411 34.4028 4.45516 35.188 2.37109 35.9648ZM16.9258 12.5508C17.1743 12.5896 17.4087 12.6716 17.6289 12.7969C18.3906 13.5586 19.1524 14.3203 19.9141 15.082C20.2244 15.5962 20.1659 16.0767 19.7383 16.5234C19.3741 16.7239 18.9991 16.7474 18.6133 16.5938C17.6851 15.7828 16.8297 14.9039 16.0469 13.957C15.8977 13.199 16.1907 12.7302 16.9258 12.5508ZM21.0742 18.8789C23.0247 19.0481 24.1263 20.1028 24.3789 22.043C24.0634 24.2454 22.7978 25.265 20.582 25.1016C18.5439 24.4124 17.7821 23.0179 18.2969 20.918C18.8594 19.7332 19.7852 19.0535 21.0742 18.8789ZM14.8164 20.9883C15.8035 21.2048 16.0964 21.7673 15.6953 22.6758C15.2194 23.0996 14.7154 23.1347 14.1836 22.7812C13.6524 21.9116 13.8633 21.3139 14.8164 20.9883Z" fill="white"/>
<path opacity="0.966" fill-rule="evenodd" clip-rule="evenodd" d="M8.69922 12.5508C10.0508 12.6232 11.0001 13.2794 11.5469 14.5195C12.0958 16.3389 11.545 17.71 9.89453 18.6328C8.85264 19.0164 7.84484 18.9461 6.87109 18.4219C6.81086 18.3734 6.76399 18.3149 6.73047 18.2461C7.38725 16.346 8.04348 14.4476 8.69922 12.5508Z" fill="white"/>
<path opacity="0.926" fill-rule="evenodd" clip-rule="evenodd" d="M21.1445 20.918C21.861 20.9547 22.2593 21.3296 22.3399 22.043C22.1479 22.9939 21.5854 23.3104 20.6524 22.9922C20.16 22.5882 20.0311 22.0842 20.2656 21.4805C20.4791 21.1603 20.772 20.9728 21.1445 20.918Z" fill="white"/>
<path opacity="0.971" fill-rule="evenodd" clip-rule="evenodd" d="M12.6367 27.2461C14.9856 27.4737 16.0755 28.7627 15.9063 31.1133C14.2007 31.7365 12.4897 32.3459 10.7735 32.9414C9.73249 32.0445 9.38093 30.9195 9.71878 29.5664C10.2098 28.1793 11.1825 27.4058 12.6367 27.2461Z" fill="white"/>
</g>
<path d="M8.85902 60.5455V70H6.88317V62.1705H3.06072V70H1.08487V60.5455H8.85902ZM10.7252 70V62.9091H12.6919V70H10.7252ZM11.7132 61.995C11.4208 61.995 11.17 61.8981 10.9607 61.7042C10.7545 61.5072 10.6514 61.2718 10.6514 60.9979C10.6514 60.727 10.7545 60.4947 10.9607 60.3008C11.17 60.1038 11.4208 60.0053 11.7132 60.0053C12.0055 60.0053 12.2548 60.1038 12.461 60.3008C12.6703 60.4947 12.7749 60.727 12.7749 60.9979C12.7749 61.2718 12.6703 61.5072 12.461 61.7042C12.2548 61.8981 12.0055 61.995 11.7132 61.995ZM20.4672 62.9091V68.6428H21.5982V72.2805H19.687V70H14.2672V62.9091H16.1461V68.4535H18.6113V62.9091H20.4672ZM24.8332 70.1339C24.3808 70.1339 23.9776 70.0554 23.6237 69.8984C23.2697 69.7384 22.9897 69.503 22.7835 69.1921C22.5803 68.8782 22.4788 68.4873 22.4788 68.0195C22.4788 67.6256 22.5511 67.2947 22.6958 67.027C22.8404 66.7592 23.0374 66.5438 23.2867 66.3807C23.536 66.2176 23.8191 66.0945 24.1361 66.0114C24.4562 65.9283 24.7916 65.8698 25.1425 65.8359C25.5549 65.7929 25.8873 65.7528 26.1396 65.7159C26.392 65.6759 26.5751 65.6174 26.689 65.5405C26.8029 65.4635 26.8598 65.3497 26.8598 65.1989V65.1712C26.8598 64.8788 26.7675 64.6526 26.5828 64.4925C26.4012 64.3325 26.1427 64.2525 25.8073 64.2525C25.4533 64.2525 25.1717 64.331 24.9624 64.4879C24.7532 64.6418 24.6147 64.8357 24.547 65.0696L22.7281 64.9219C22.8204 64.491 23.002 64.1186 23.2728 63.8047C23.5436 63.4877 23.893 63.2446 24.3208 63.0753C24.7516 62.9029 25.2502 62.8168 25.8165 62.8168C26.2104 62.8168 26.5874 62.8629 26.9475 62.9553C27.3107 63.0476 27.6323 63.1907 27.9124 63.3846C28.1955 63.5785 28.4186 63.8278 28.5818 64.1325C28.7449 64.4341 28.8264 64.7957 28.8264 65.2173V70H26.9614V69.0167H26.906C26.7921 69.2383 26.6398 69.4337 26.449 69.603C26.2581 69.7692 26.0289 69.9 25.7611 69.9954C25.4933 70.0877 25.184 70.1339 24.8332 70.1339ZM25.3964 68.7766C25.6857 68.7766 25.9411 68.7197 26.1627 68.6058C26.3843 68.4889 26.5582 68.3319 26.6844 68.1349C26.8106 67.938 26.8737 67.7148 26.8737 67.4656V66.7131C26.8121 66.7531 26.7275 66.79 26.6198 66.8239C26.5151 66.8546 26.3966 66.8839 26.2643 66.9116C26.132 66.9362 25.9996 66.9593 25.8673 66.9808C25.7349 66.9993 25.6149 67.0162 25.5072 67.0316C25.2764 67.0655 25.0748 67.1193 24.9024 67.1932C24.7301 67.267 24.5962 67.3671 24.5008 67.4933C24.4054 67.6164 24.3577 67.7702 24.3577 67.9549C24.3577 68.2227 24.4546 68.4273 24.6485 68.5689C24.8455 68.7074 25.0948 68.7766 25.3964 68.7766Z" fill="white"/>
<defs>
<clipPath id="clip0_69_507">
<rect width="36" height="36" fill="white" transform="translate(1)"/>
</clipPath>
</defs>
</svg>
