<svg width="500" height="356" viewBox="0 0 500 356" fill="none" xmlns="http://www.w3.org/2000/svg">
<path d="M363.302 156.25C339.711 156.25 321.236 165.71 321.236 177.776C321.236 189.844 339.711 199.294 363.302 199.294C386.883 199.294 405.35 189.844 405.35 177.776C405.35 165.717 386.875 156.25 363.302 156.25Z" fill="#FFD183"/>
<path d="M499.657 265.589C497.48 257.01 485.172 249.718 480.565 246.976L442.679 223.327V177.784C442.679 155.729 407.692 138.452 363.015 138.452C346.535 138.452 330.81 140.821 317.516 145.313L90.5473 3.76864C86.3438 1.2512 81.8108 0 77.0768 0C68.652 0 60.1739 4.33066 56.4832 10.5361C53.8427 14.9501 53.2151 20.5251 54.7507 25.813C55.9458 29.9755 59.0663 35.9279 67.1205 40.7317L286.42 166.81C284.408 170.37 283.399 174.069 283.399 177.776V234.527L36.6008 80.6456C32.3973 78.1295 27.8561 76.8688 23.1302 76.8688C14.6973 76.8688 6.2274 81.1994 2.55311 87.4035C-0.0778253 91.8175 -0.706844 97.3925 0.812373 102.68C2.00751 106.843 5.12662 112.795 13.1822 117.595L283.4 272.971V321.828L284.624 322.748C307.665 340.04 333.061 348.793 360.052 348.793C374.06 348.793 388.455 346.395 402.871 341.683L412.627 347.282C422.003 352.867 429.237 355.561 434.731 355.561C440.314 355.561 443.156 352.769 444.56 350.388C447.353 345.691 447.558 338.071 433.221 328.037C438.025 325.212 440.915 323.16 441.499 322.723L442.696 321.829V256.682L466.576 270.419C475.961 276.002 483.194 278.704 488.689 278.704C494.255 278.704 497.104 275.896 498.5 273.515C499.967 271.033 500.369 268.356 499.657 265.589ZM363.023 211.125C322.443 211.125 289.41 196.147 289.41 177.782C289.41 159.401 322.443 144.469 363.023 144.469C403.626 144.469 436.652 159.41 436.652 177.782C436.652 196.147 403.626 211.125 363.023 211.125Z" fill="#FFD183"/>
</svg>
