<svg width="45" height="45" viewBox="0 0 45 45" fill="none" xmlns="http://www.w3.org/2000/svg">
<path fill-rule="evenodd" clip-rule="evenodd" d="M20.083 1.36234C24.9498 1.01836 29.6372 1.76543 34.1455 3.60355C36.2472 4.53465 38.1075 5.80906 39.7266 7.42679C41.2639 9.04925 42.0843 10.9828 42.1875 13.2276C42.2461 19.3799 42.2461 25.5323 42.1875 31.6846C42.0843 33.9293 41.2639 35.8629 39.7266 37.4854C37.7518 39.4333 35.452 40.8835 32.8272 41.836C27.2125 43.7234 21.4996 44.075 15.6885 42.8907C12.0263 42.1579 8.77443 40.6052 5.93262 38.2325C4.28894 36.7471 3.24891 34.9161 2.8125 32.7393C2.75391 25.8838 2.75391 19.0284 2.8125 12.1729C3.13797 10.35 3.92899 8.76805 5.18555 7.42679C7.65019 5.01426 10.5652 3.35899 13.9307 2.46097C15.9616 1.91266 18.0124 1.54645 20.083 1.36234ZM22.2803 2.76859C26.6245 2.75551 30.7554 3.67836 34.6729 5.53715C36.6523 6.57847 38.3076 7.99937 39.6387 9.79984C41.1842 12.6253 40.9499 15.2914 38.9356 17.7979C36.5578 20.2546 33.7014 21.9099 30.3662 22.7637C24.2214 24.3741 18.157 24.1105 12.1729 21.9727C9.34893 20.9503 7.04909 19.2364 5.27344 16.8311C3.72785 14.0056 3.96223 11.3395 5.97656 8.83304C7.90578 6.78836 10.2056 5.30886 12.876 4.39457C15.938 3.35697 19.0727 2.81498 22.2803 2.76859Z" fill="#FBCD7D"/>
<path fill-rule="evenodd" clip-rule="evenodd" d="M20.2587 6.28414C21.9301 6.26444 23.6 6.29373 25.2685 6.37203C24.7737 9.34141 23.3967 11.817 21.1376 13.7988C18.6364 15.8698 15.7945 17.2907 12.6122 18.0615C10.8565 17.3163 9.69937 16.0272 9.14056 14.1943C8.88173 12.6862 9.26256 11.3678 10.2831 10.2392C11.8577 8.7116 13.7181 7.67155 15.8642 7.1191C17.319 6.71962 18.7838 6.4413 20.2587 6.28414Z" fill="#FBCD7D"/>
<path fill-rule="evenodd" clip-rule="evenodd" d="M26.5869 6.54785C29.1039 6.93248 31.4183 7.82603 33.5303 9.22852C34.9451 10.227 35.7362 11.5893 35.9033 13.3154C35.8756 14.174 35.612 14.9504 35.1123 15.6445C30.9464 16.0345 27.0499 15.1995 23.4229 13.1396C25.0181 11.2088 26.0728 9.01151 26.5869 6.54785Z" fill="#FBCD7D"/>
<path fill-rule="evenodd" clip-rule="evenodd" d="M22.4561 14.1943C25.9869 16.0952 29.7662 17.0766 33.7939 17.1387C32.3836 18.254 30.8015 19.045 29.0479 19.5117C24.7781 20.5918 20.5008 20.6211 16.2158 19.5996C15.611 19.4469 15.0251 19.2417 14.458 18.9844C17.0343 18.1361 19.3779 16.8763 21.4893 15.2051C21.8294 14.8797 22.1517 14.5427 22.4561 14.1943Z" fill="#FBCD7D"/>
</svg>
