<svg width="500" height="332" viewBox="0 0 500 332" fill="none" xmlns="http://www.w3.org/2000/svg">
<path d="M164.2 63.7393H201.422C203.473 63.7393 204.99 62.4951 204.815 60.9776L202.069 37.1299C201.933 35.9971 200.424 35.0869 198.685 35.0869H167.113C165.372 35.0869 163.856 35.9971 163.72 37.1299L160.831 60.9776C160.649 62.4951 162.149 63.7393 164.2 63.7393Z" fill="#FFD183"/>
<path d="M126.561 187.294C141.429 196.863 161.07 201.923 183.336 201.931C205.603 201.923 225.237 196.863 240.128 187.286C247.255 182.705 252.886 177.183 256.897 171.117C260.903 177.183 266.534 182.713 273.665 187.295C288.534 196.864 308.174 201.924 330.441 201.932C352.707 201.924 372.337 196.864 387.23 187.287C402.234 177.654 410.853 163.896 410.885 149.522V61.6758C410.79 57.4141 409.944 53.1289 408.347 48.9141L403.048 35.0274C398.962 24.293 389.162 15.2344 374.701 8.83399C361.831 3.13672 346.124 0 330.466 0C314.807 0 299.101 3.13672 286.228 8.83399C271.814 15.2188 261.99 24.2695 257.8 35.0518L256.882 37.4942L255.94 35.0274C251.854 24.293 242.053 15.2344 227.6 8.83399C214.727 3.13672 199.021 0 183.363 0C167.703 0 151.997 3.13672 139.124 8.83399C124.71 15.2188 114.886 24.2695 110.697 35.0518L105.469 48.9307C103.897 53.0967 103.051 57.3829 102.948 62.2667L102.94 149.546C102.953 163.902 111.565 177.66 126.561 187.294ZM183.362 17.9707C196.585 17.9707 209.73 20.5567 220.369 25.2412C229.938 29.4551 236.961 35.4727 239.171 41.3701L244.447 55.2413C245.292 57.6514 245.74 59.8379 245.803 62.2637C245.803 70.4522 240.328 78.4727 230.384 84.8731C218.644 92.4874 201.94 96.6778 183.361 96.6778C164.828 96.6778 148.116 92.5118 136.345 84.962C126.401 78.4971 120.917 70.4366 120.917 61.9366C120.99 59.6299 121.421 57.4756 122.235 55.3448L127.557 41.3535C129.768 35.4717 136.791 29.4551 146.36 25.2402C156.991 20.5567 170.128 17.9707 183.362 17.9707ZM330.465 17.9707C343.689 17.9707 356.833 20.5567 367.472 25.2412C377.045 29.4551 384.068 35.4727 386.271 41.3701L391.554 55.2413C392.4 57.6514 392.847 59.8379 392.911 62.2637C392.911 70.4522 387.435 78.4727 377.492 84.8731C365.748 92.4874 349.043 96.6778 330.464 96.6778C311.932 96.6778 295.22 92.5118 283.449 84.962C273.504 78.4971 268.021 70.4366 268.021 61.9366C268.093 59.6299 268.525 57.4756 269.338 55.3448L274.661 41.3535C276.871 35.4717 283.895 29.4551 293.463 25.2402C304.096 20.5567 317.233 17.9707 330.465 17.9707Z" fill="#FFD183"/>
<path d="M311.303 63.7393H348.526C350.576 63.7393 352.093 62.4951 351.918 60.9776L349.172 37.1299C349.036 35.9971 347.527 35.0869 345.789 35.0869H314.217C312.477 35.0869 310.96 35.9971 310.824 37.1299L307.936 60.9776C307.752 62.4951 309.253 63.7393 311.303 63.7393Z" fill="#FFD183"/>
<path d="M8.50001 278.756L491.508 278.141C496.201 278.141 499.984 274.342 499.984 269.665V252.003C499.984 249.705 499.059 247.502 497.398 245.905C495.738 244.301 493.503 243.448 491.221 243.528L8.18848 260.256C3.62403 260.423 0 264.166 0 268.731V270.272C0 272.529 0.902344 274.685 2.49024 276.274C4.08594 277.869 6.24122 278.756 8.50001 278.756Z" fill="#FFD183"/>
<path d="M491.525 296.506L8.5066 295.892C6.24878 295.892 4.09351 296.785 2.4978 298.374C0.9021 299.97 0.00756836 302.124 0.00756836 304.384V305.916C0.00756836 310.481 3.63159 314.232 8.19605 314.392L491.221 331.12C493.519 331.2 495.754 330.346 497.414 328.75C499.059 327.146 500 324.951 500 322.645V304.99C500 300.306 496.201 296.506 491.525 296.506Z" fill="#FFD183"/>
</svg>
