<svg width="37" height="71" viewBox="0 0 37 71" fill="none" xmlns="http://www.w3.org/2000/svg">
<g clip-path="url(#clip0_69_508)">
<path opacity="0.955" fill-rule="evenodd" clip-rule="evenodd" d="M11.2148 2.64457C12.3506 2.503 12.8311 2.99519 12.6562 4.12113C11.5429 5.31638 11.5898 6.46482 12.7968 7.56644C13.9753 9.45532 13.8463 11.2483 12.4101 12.9453C11.874 13.2824 11.3467 13.2708 10.8281 12.9102C10.5923 12.547 10.522 12.1486 10.6172 11.7149C11.7305 10.5196 11.6836 9.37122 10.4765 8.26957C9.32622 6.44418 9.42002 4.68637 10.7578 2.99613C10.9213 2.88604 11.0736 2.76885 11.2148 2.64457Z" fill="white"/>
<path opacity="0.955" fill-rule="evenodd" clip-rule="evenodd" d="M17.5429 2.64457C18.6788 2.503 19.1592 2.99519 18.9843 4.12113C17.871 5.31638 17.9179 6.46482 19.125 7.56644C20.3034 9.45532 20.1745 11.2483 18.7383 12.9453C18.2021 13.2824 17.6748 13.2708 17.1562 12.9102C16.9204 12.547 16.8501 12.1486 16.9453 11.7149C18.0586 10.5196 18.0117 9.37122 16.8047 8.26957C15.6543 6.44418 15.7481 4.68637 17.0859 2.99613C17.2495 2.88604 17.4018 2.76885 17.5429 2.64457Z" fill="white"/>
<path opacity="0.955" fill-rule="evenodd" clip-rule="evenodd" d="M23.8711 2.64457C25.0069 2.503 25.4873 2.99519 25.3125 4.12113C24.1991 5.31638 24.246 6.46482 25.4531 7.56644C26.6315 9.45532 26.5026 11.2483 25.0664 12.9453C24.5302 13.2824 24.0029 13.2708 23.4843 12.9102C23.2485 12.547 23.1782 12.1486 23.2734 11.7149C24.3867 10.5196 24.3398 9.37122 23.1328 8.26957C21.9825 6.44418 22.0763 4.68637 23.414 2.99613C23.5776 2.88604 23.7299 2.76885 23.8711 2.64457Z" fill="white"/>
<path opacity="0.998" fill-rule="evenodd" clip-rule="evenodd" d="M35.9648 18.043C35.9648 18.6524 35.9648 19.2617 35.9648 19.8711C35.8751 20.4435 35.7578 21.0178 35.6133 21.5938C23.8477 21.6407 12.082 21.6407 0.316406 21.5938C0.171865 21.018 0.054677 20.4437 -0.0351562 19.8711C-0.0351562 19.2617 -0.0351562 18.6524 -0.0351562 18.043C0.0924476 17.7632 0.303385 17.564 0.597656 17.4453C12.1758 17.3984 23.7539 17.3984 35.332 17.4453C35.6263 17.564 35.8372 17.7632 35.9648 18.043Z" fill="white"/>
<path opacity="0.996" fill-rule="evenodd" clip-rule="evenodd" d="M1.01953 23.7383C12.3165 23.7149 23.6134 23.7383 34.9102 23.8086C33.4336 27.207 30.9961 29.6445 27.5977 31.1211C27.5391 31.9639 27.5039 32.8076 27.4922 33.6523C27.3966 33.8798 27.2442 34.0556 27.0352 34.1797C24.0176 34.2614 20.9941 34.2965 17.9648 34.2851C14.9356 34.2965 11.9121 34.2614 8.89453 34.1797C8.68549 34.0556 8.53312 33.8798 8.4375 33.6523C8.42576 32.8076 8.3906 31.9639 8.33203 31.1211C4.90284 29.6372 2.46534 27.1763 1.01953 23.7383Z" fill="white"/>
</g>
<path d="M12.1637 61.3555H10.1417C10.1048 61.0939 10.0294 60.8615 9.91548 60.6584C9.80161 60.4522 9.65542 60.2768 9.47692 60.1321C9.29841 59.9875 9.09221 59.8767 8.85831 59.7997C8.62749 59.7228 8.37666 59.6843 8.10582 59.6843C7.61648 59.6843 7.19022 59.8059 6.82706 60.049C6.4639 60.2891 6.18229 60.6399 5.98224 61.1016C5.7822 61.5601 5.68217 62.1172 5.68217 62.7727C5.68217 63.4467 5.7822 64.013 5.98224 64.4716C6.18537 64.9302 6.46851 65.2764 6.83168 65.5103C7.19484 65.7442 7.61494 65.8612 8.09197 65.8612C8.35973 65.8612 8.60748 65.8258 8.83523 65.755C9.06605 65.6842 9.27072 65.5811 9.44922 65.4457C9.62772 65.3072 9.77545 65.1394 9.8924 64.9425C10.0124 64.7455 10.0955 64.5208 10.1417 64.2685L12.1637 64.2777C12.1114 64.7116 11.9806 65.1302 11.7713 65.5334C11.5651 65.9335 11.2866 66.292 10.9357 66.609C10.5879 66.9229 10.1725 67.1722 9.68928 67.3569C9.20916 67.5385 8.66596 67.6293 8.05966 67.6293C7.21638 67.6293 6.46236 67.4384 5.79759 67.0568C5.13589 66.6752 4.61269 66.1228 4.22798 65.3995C3.84635 64.6763 3.65554 63.8007 3.65554 62.7727C3.65554 61.7417 3.84943 60.8646 4.23722 60.1413C4.625 59.4181 5.15128 58.8672 5.81605 58.4886C6.48082 58.107 7.22869 57.9162 8.05966 57.9162C8.60748 57.9162 9.11529 57.9931 9.5831 58.147C10.054 58.3009 10.471 58.5256 10.8342 58.821C11.1973 59.1134 11.4928 59.4719 11.7205 59.8967C11.9513 60.3214 12.0991 60.8076 12.1637 61.3555ZM14.8632 70.1591C14.6139 70.1591 14.38 70.1391 14.1615 70.0991C13.9461 70.0621 13.7675 70.0144 13.626 69.956L14.0692 68.4879C14.3 68.5587 14.5077 68.5972 14.6924 68.6033C14.8801 68.6095 15.0417 68.5664 15.1771 68.4741C15.3156 68.3817 15.4279 68.2248 15.5141 68.0032L15.6295 67.7031L13.0858 60.4091H15.154L16.6221 65.6165H16.6959L18.1778 60.4091H20.2599L17.5038 68.2663C17.3715 68.648 17.1914 68.9804 16.9637 69.2635C16.739 69.5497 16.4543 69.7698 16.1096 69.9237C15.7649 70.0806 15.3495 70.1591 14.8632 70.1591ZM21.2662 67.5V60.4091H27.4662V67.5H25.5873V61.9556H23.1221V67.5H21.2662ZM30.9147 64.9055L33.4676 60.4091H35.4065V67.5H33.5322V62.9897L30.9885 67.5H29.0358V60.4091H30.9147V64.9055Z" fill="white"/>
<defs>
<clipPath id="clip0_69_508">
<rect width="36" height="36" fill="white" transform="translate(0 0.5)"/>
</clipPath>
</defs>
</svg>
