<svg width="500" height="500" viewBox="0 0 500 500" fill="none" xmlns="http://www.w3.org/2000/svg">
<path d="M477.273 227.271H22.7273C10.1758 227.271 0 237.446 0 249.998C0 339.793 47.5955 418.671 118.874 462.76C115.605 466.696 113.636 471.752 113.636 477.271C113.636 489.822 123.812 499.998 136.364 499.998H363.636C376.188 499.998 386.364 489.822 386.364 477.271C386.364 471.752 384.395 466.696 381.126 462.76C452.405 418.671 500 339.793 500 249.998C500 237.446 489.824 227.271 477.273 227.271Z" fill="#FFD183"/>
<path d="M160.012 6.65701C151.138 -2.22027 136.745 -2.21723 127.87 6.65549C115.468 19.0585 98.4803 36.0434 98.4849 68.1797C98.4803 100.321 115.465 117.304 127.868 129.704C139.012 140.849 143.939 146.315 143.939 159.09C143.939 171.642 154.115 181.818 166.667 181.818C179.218 181.818 189.394 171.642 189.394 159.09C189.394 126.946 172.409 109.963 160.006 97.5631C148.864 86.4206 143.938 80.957 143.939 68.1797C143.938 55.407 148.865 49.9419 160.011 38.7964C168.888 29.9222 168.888 15.5328 160.012 6.65701Z" fill="#FFD183"/>
<path d="M266.073 6.65701C257.199 -2.22027 242.806 -2.21723 233.93 6.65549C221.527 19.057 204.541 36.0419 204.544 68.1797C204.539 100.321 221.524 117.304 233.927 129.704C245.073 140.849 250 146.315 250 159.09C250 171.642 260.176 181.818 272.727 181.818C285.279 181.818 295.455 171.642 295.455 159.09C295.455 126.946 278.47 109.963 266.068 97.5631C254.924 86.4206 249.999 80.957 250 68.1797C249.999 55.407 254.926 49.9419 266.071 38.7964C274.948 29.9222 274.949 15.5328 266.073 6.65701Z" fill="#FFD183"/>
<path d="M372.133 6.65701C363.259 -2.22027 348.867 -2.21723 339.991 6.65549C327.588 19.057 310.601 36.0419 310.604 68.1797C310.6 100.321 327.585 117.304 339.988 129.704C351.133 140.849 356.061 146.315 356.061 159.09C356.061 171.642 366.236 181.818 378.788 181.818C391.339 181.818 401.515 171.642 401.515 159.09C401.515 126.946 384.53 109.963 372.129 97.5631C360.985 86.4206 356.059 80.957 356.061 68.1797C356.059 55.407 360.986 49.9419 372.132 38.7964C381.009 29.9222 381.009 15.5328 372.133 6.65701Z" fill="#FFD183"/>
</svg>
