<svg width="36" height="36" viewBox="0 0 36 36" fill="none" xmlns="http://www.w3.org/2000/svg">
<g clip-path="url(#clip0_915_385)">
<path opacity="0.955" fill-rule="evenodd" clip-rule="evenodd" d="M11.2149 2.14432C12.3508 2.00276 12.8312 2.49494 12.6563 3.62088C11.543 4.81613 11.5899 5.96458 12.797 7.0662C13.9754 8.95507 13.8465 10.748 12.4103 12.4451C11.8741 12.7822 11.3468 12.7705 10.8282 12.4099C10.5924 12.0467 10.5221 11.6483 10.6173 11.2146C11.7306 10.0194 11.6837 8.87098 10.4767 7.76932C9.32635 5.94394 9.42014 4.18613 10.7579 2.49589C10.9215 2.3858 11.0738 2.26861 11.2149 2.14432Z" fill="#FBCD7D"/>
<path opacity="0.955" fill-rule="evenodd" clip-rule="evenodd" d="M17.5431 2.14432C18.6789 2.00276 19.1593 2.49494 18.9845 3.62088C17.8711 4.81613 17.918 5.96458 19.1251 7.0662C20.3035 8.95507 20.1746 10.748 18.7384 12.4451C18.2022 12.7822 17.6749 12.7705 17.1563 12.4099C16.9205 12.0467 16.8502 11.6483 16.9454 11.2146C18.0587 10.0194 18.0118 8.87098 16.8048 7.76932C15.6545 5.94394 15.7483 4.18613 17.086 2.49589C17.2496 2.3858 17.4019 2.26861 17.5431 2.14432Z" fill="#FBCD7D"/>
<path opacity="0.955" fill-rule="evenodd" clip-rule="evenodd" d="M23.8712 2.14432C25.007 2.00276 25.4875 2.49494 25.3126 3.62088C24.1993 4.81613 24.2462 5.96458 25.4532 7.0662C26.6317 8.95507 26.5027 10.748 25.0665 12.4451C24.5304 12.7822 24.003 12.7705 23.4845 12.4099C23.2486 12.0467 23.1783 11.6483 23.2735 11.2146C24.3869 10.0194 24.34 8.87098 23.1329 7.76932C21.9826 5.94394 22.0764 4.18613 23.4142 2.49589C23.5777 2.3858 23.73 2.26861 23.8712 2.14432Z" fill="#FBCD7D"/>
<path opacity="0.998" fill-rule="evenodd" clip-rule="evenodd" d="M35.9648 17.543C35.9648 18.1524 35.9648 18.7617 35.9648 19.3711C35.8751 19.9435 35.7578 20.5178 35.6133 21.0938C23.8477 21.1407 12.082 21.1407 0.316406 21.0938C0.171865 20.518 0.054677 19.9437 -0.0351562 19.3711C-0.0351562 18.7617 -0.0351562 18.1524 -0.0351562 17.543C0.0924476 17.2632 0.303385 17.064 0.597656 16.9453C12.1758 16.8984 23.7539 16.8984 35.332 16.9453C35.6263 17.064 35.8372 17.2632 35.9648 17.543Z" fill="#FBCD7D"/>
<path opacity="0.996" fill-rule="evenodd" clip-rule="evenodd" d="M1.01953 23.2383C12.3165 23.2149 23.6134 23.2383 34.9102 23.3086C33.4336 26.707 30.9961 29.1445 27.5977 30.6211C27.5391 31.4639 27.5039 32.3076 27.4922 33.1523C27.3966 33.3798 27.2442 33.5556 27.0352 33.6797C24.0176 33.7614 20.9941 33.7965 17.9648 33.7851C14.9356 33.7965 11.9121 33.7614 8.89453 33.6797C8.68549 33.5556 8.53312 33.3798 8.4375 33.1523C8.42576 32.3076 8.3906 31.4639 8.33203 30.6211C4.90284 29.1372 2.46534 26.6763 1.01953 23.2383Z" fill="#FBCD7D"/>
</g>
<defs>
<clipPath id="clip0_915_385">
<rect width="36" height="36" fill="white"/>
</clipPath>
</defs>
</svg>
