<?xml version="1.0" encoding="UTF-8"?>
<!DOCTYPE svg PUBLIC "-//W3C//DTD SVG 1.1//EN" "http://www.w3.org/Graphics/SVG/1.1/DTD/svg11.dtd">
<svg xmlns="http://www.w3.org/2000/svg" version="1.1" width="512px" height="512px" style="shape-rendering:geometricPrecision; text-rendering:geometricPrecision; image-rendering:optimizeQuality; fill-rule:evenodd; clip-rule:evenodd" xmlns:xlink="http://www.w3.org/1999/xlink">
<g><path style="opacity:1" fill="#fefffe" d="M 228.5,15.5 C 283.873,11.5863 337.206,20.0863 388.5,41C 412.412,51.5938 433.579,66.0938 452,84.5C 469.492,102.96 478.826,124.96 480,150.5C 480.667,220.5 480.667,290.5 480,360.5C 478.826,386.04 469.492,408.04 452,426.5C 429.531,448.663 403.365,465.163 373.5,476C 309.618,497.475 244.618,501.475 178.5,488C 136.833,479.663 99.8335,461.996 67.5,435C 48.7986,418.1 36.9653,397.267 32,372.5C 31.3333,294.5 31.3333,216.5 32,138.5C 35.7031,117.76 44.7031,99.7605 59,84.5C 87.0421,57.0507 120.209,38.2174 158.5,28C 181.608,21.7614 204.941,17.5948 228.5,15.5 Z M 253.5,31.5 C 302.928,31.3512 349.928,41.8512 394.5,63C 417.022,74.848 435.855,91.0146 451,111.5C 468.585,143.648 465.919,173.982 443,202.5C 415.947,230.452 383.447,249.286 345.5,259C 275.586,277.323 206.586,274.323 138.5,250C 106.37,238.367 80.203,218.867 60,191.5C 42.4146,159.352 45.0813,129.018 68,100.5C 89.9502,77.236 116.117,60.4026 146.5,50C 181.339,38.1944 217.005,32.0278 253.5,31.5 Z"/></g>
<g><path style="opacity:1" fill="#fefffe" d="M 230.5,71.5 C 249.516,71.2759 268.516,71.6092 287.5,72.5C 281.87,106.285 266.203,134.452 240.5,157C 212.041,180.563 179.707,196.73 143.5,205.5C 123.524,197.021 110.358,182.354 104,161.5C 101.055,144.341 105.388,129.341 117,116.5C 134.915,99.1191 156.082,87.2857 180.5,81C 197.052,76.4548 213.719,73.2882 230.5,71.5 Z"/></g>
<g><path style="opacity:1" fill="#fefffe" d="M 302.5,74.5 C 331.138,78.8762 357.471,89.0428 381.5,105C 397.598,116.361 406.598,131.861 408.5,151.5C 408.185,161.269 405.185,170.102 399.5,178C 352.101,182.437 307.768,172.937 266.5,149.5C 284.65,127.531 296.65,102.531 302.5,74.5 Z"/></g>
<g><path style="opacity:1" fill="#fefffe" d="M 255.5,161.5 C 295.673,183.128 338.673,194.294 384.5,195C 368.453,207.69 350.453,216.69 330.5,222C 281.92,234.289 233.254,234.622 184.5,223C 177.618,221.262 170.952,218.928 164.5,216C 193.812,206.348 220.478,192.015 244.5,173C 248.37,169.298 252.037,165.464 255.5,161.5 Z"/></g>
</svg>
