<svg width="45" height="50" viewBox="0 0 45 50" fill="none" xmlns="http://www.w3.org/2000/svg">
<g clip-path="url(#clip0_29_144)">
<path d="M44.3859 3.69658C44.3305 2.79805 43.6274 2.11924 42.8454 2.1834L1.45869 5.44434C0.663483 5.50742 0.0633554 6.28603 0.118785 7.18457C0.17188 8.04434 0.806251 8.70137 1.55779 8.70137C1.59169 8.70137 1.62542 8.70029 1.65983 8.69766L43.0466 5.43682C43.8418 5.37373 44.4415 4.59521 44.3859 3.69658Z" fill="#B2854F"/>
<path d="M42.9461 8.70142H1.5594C0.761854 8.70142 0.115723 9.4312 0.115723 10.3318C0.115723 11.2325 0.76194 11.9513 1.5594 11.9513H42.9462C43.7432 11.9513 44.39 11.2324 44.39 10.3318C44.3899 9.4312 43.7431 8.70142 42.9461 8.70142Z" fill="#B2854F"/>
<path d="M10.2216 25.0056C7.83327 25.0056 5.89038 27.1998 5.89038 29.8969C5.89038 32.5941 7.83327 34.7882 10.2216 34.7882C12.6099 34.7882 14.5528 32.5941 14.5528 29.8969C14.5528 27.1998 12.6099 25.0056 10.2216 25.0056Z" fill="#B2854F"/>
<path d="M44.39 33.1578V26.6362C44.39 22.1407 41.1519 18.484 37.1713 18.484H31.3964C27.4159 18.484 24.1778 22.1408 24.1778 26.6362V33.1578C24.1778 37.6532 27.4159 41.31 31.3964 41.31H13.1093C17.0898 41.31 20.3182 37.6532 20.3182 33.1578V26.6362C20.3182 22.1408 17.0897 18.484 13.1093 18.484H7.33437C3.35382 18.484 0.115723 22.1408 0.115723 26.6362V33.1578C0.115723 37.6532 3.35382 41.31 7.33437 41.31H1.55949C0.7622 41.31 0.115809 42.04 0.115809 42.9405C0.115809 45.6418 2.05489 47.8208 4.44701 47.8208H40.0589C42.4509 47.8208 44.3901 45.6418 44.3901 42.9405C44.3901 42.0401 43.7437 41.31 42.9463 41.31H37.1714C41.1519 41.31 44.39 37.6532 44.39 33.1578ZM3.00316 33.1578V26.6362C3.00316 23.939 4.94605 21.734 7.33437 21.734H13.1093C15.4976 21.734 17.4405 23.939 17.4405 26.6362V33.1578C17.4405 35.855 15.4976 38.0491 13.1093 38.0491H7.33437C4.94597 38.0491 3.00316 35.855 3.00316 33.1578ZM41.5025 33.1578C41.5025 35.855 39.5596 38.0491 37.1713 38.0491H31.3964C29.0081 38.0491 27.0556 35.855 27.0556 33.1578V26.6362C27.0556 23.939 29.0081 21.734 31.3964 21.734H37.1713C39.5596 21.734 41.5025 23.939 41.5025 26.6362V33.1578Z" fill="#B2854F"/>
<path d="M34.2836 25.0056C31.8953 25.0056 29.9524 27.1998 29.9524 29.8969C29.9524 32.5941 31.8953 34.7882 34.2836 34.7882C36.6719 34.7882 38.6148 32.5941 38.6148 29.8969C38.6148 27.1998 36.6719 25.0056 34.2836 25.0056Z" fill="#B2854F"/>
</g>
<defs>
<clipPath id="clip0_29_144">
<rect width="44.2745" height="50" fill="white" transform="translate(0.115234)"/>
</clipPath>
</defs>
</svg>
