<!DOCTYPE svg PUBLIC "-//W3C//DTD SVG 1.1//EN" "http://www.w3.org/Graphics/SVG/1.1/DTD/svg11.dtd">
<!-- Uploaded to: SVG Repo, www.svgrepo.com, Transformed by: SVG Repo Mixer Tools -->
<svg fill="#ffffff" height="800px" width="800px" version="1.1" id="Layer_1" xmlns="http://www.w3.org/2000/svg" xmlns:xlink="http://www.w3.org/1999/xlink" viewBox="0 0 280 280" xml:space="preserve" stroke="#ffffff">
<g id="SVGRepo_bgCarrier" stroke-width="0"/>
<g id="SVGRepo_tracerCarrier" stroke-linecap="round" stroke-linejoin="round"/>
<g id="SVGRepo_iconCarrier"> <g id="XMLID_30_"> <path id="XMLID_31_" d="M235.098,19.89C209.445,7.063,175.673,0,140,0S70.555,7.063,44.902,19.89C15.947,34.368,0,54.828,0,77.5 v125c0,22.672,15.947,43.132,44.902,57.61C70.555,272.936,104.327,280,140,280s69.445-7.064,95.098-19.89 C264.053,245.632,280,225.172,280,202.5v-125C280,54.828,264.053,34.368,235.098,19.89z M140,30c62.958,0,110,25.078,110,47.5 S202.958,125,140,125S30,99.922,30,77.5S77.042,30,140,30z M140,250c-62.958,0-110-25.078-110-47.5v-76.145 c4.497,3.112,9.471,6.039,14.902,8.755C70.555,147.936,104.327,155,140,155s69.445-7.064,95.098-19.89 c5.432-2.716,10.405-5.643,14.902-8.755V202.5C250,224.922,202.958,250,140,250z"/> <ellipse id="XMLID_87_" cx="140" cy="77.501" rx="45" ry="22.5"/> </g> </g>
</svg>