<?xml version="1.0" encoding="iso-8859-1"?>
<!-- Uploaded to: SVG Repo, www.svgrepo.com, Generator: SVG Repo Mixer Tools -->
<!DOCTYPE svg PUBLIC "-//W3C//DTD SVG 1.1//EN" "http://www.w3.org/Graphics/SVG/1.1/DTD/svg11.dtd">
<svg fill="#000000" version="1.1" id="Capa_1" xmlns="http://www.w3.org/2000/svg" xmlns:xlink="http://www.w3.org/1999/xlink" 
	 width="800px" height="800px" viewBox="0 0 365.649 365.649"
	 xml:space="preserve">
<g>
	<g>
		<g>
			<path d="M265.682,167.08c-17.252,0-30.763,6.918-30.763,15.742c0,8.825,13.511,15.736,30.763,15.736
				c17.245,0,30.75-6.911,30.75-15.736C296.432,174.003,282.921,167.08,265.682,167.08z"/>
		</g>
		<g>
			<path d="M365.398,247.04c-1.592-6.274-10.593-11.607-13.962-13.612l-27.706-17.294v-33.306c0-16.129-25.586-28.763-58.258-28.763
				c-12.052,0-23.551,1.732-33.273,5.017L66.217,55.571c-3.074-1.841-6.389-2.756-9.851-2.756c-6.161,0-12.361,3.167-15.06,7.705
				c-1.931,3.228-2.39,7.305-1.267,11.172c0.874,3.044,3.156,7.397,9.046,10.91l160.373,92.201
				c-1.471,2.603-2.209,5.308-2.209,8.019v41.502L26.766,111.791c-3.074-1.84-6.395-2.762-9.851-2.762
				c-6.167,0-12.361,3.167-15.048,7.704c-1.924,3.228-2.384,7.305-1.273,11.172c0.874,3.044,3.155,7.397,9.046,10.907
				L207.25,252.438v35.729l0.895,0.673c16.85,12.646,35.422,19.047,55.16,19.047c10.244,0,20.771-1.754,31.314-5.2l7.134,4.095
				c6.857,4.084,12.147,6.054,16.165,6.054c4.083,0,6.161-2.042,7.188-3.783c2.042-3.435,2.192-9.007-8.292-16.345
				c3.513-2.066,5.626-3.567,6.053-3.886l0.876-0.654v-47.642l17.463,10.046c6.863,4.083,12.153,6.059,16.171,6.059
				c4.071,0,6.154-2.054,7.175-3.795C365.625,251.021,365.919,249.063,365.398,247.04z M265.478,207.21
				c-29.676,0-53.833-10.953-53.833-24.383c0-13.442,24.157-24.362,53.833-24.362c29.693,0,53.845,10.926,53.845,24.362
				C319.323,196.257,295.171,207.21,265.478,207.21z"/>
		</g>
	</g>
</g>
</svg>