<svg width="84" height="74" viewBox="0 0 84 74" fill="none" xmlns="http://www.w3.org/2000/svg">
<path fill-rule="evenodd" clip-rule="evenodd" d="M44.0664 1.08985C47.9598 0.814666 51.7098 1.41232 55.3164 2.88282C56.9977 3.62769 58.486 4.64722 59.7812 5.94141C61.0112 7.23938 61.6675 8.78625 61.75 10.582C61.7969 15.5039 61.7969 20.4258 61.75 25.3477C61.6675 27.1434 61.0112 28.6903 59.7812 29.9883C58.2014 31.5466 56.3616 32.7068 54.2617 33.4688C49.77 34.9787 45.1997 35.26 40.5508 34.3125C37.6211 33.7263 35.0195 32.4841 32.7461 30.5859C31.4312 29.3977 30.5991 27.9328 30.25 26.1914C30.2031 20.707 30.2031 15.2227 30.25 9.73829C30.5104 8.28 31.1432 7.01441 32.1484 5.94141C34.1201 4.01138 36.4522 2.68717 39.1445 1.96875C40.7693 1.5301 42.4099 1.23714 44.0664 1.08985ZM45.8242 2.21485C49.2996 2.20439 52.6043 2.94267 55.7383 4.42969C57.3219 5.26275 58.6461 6.39947 59.7109 7.83985C60.9474 10.1003 60.7599 12.2331 59.1484 14.2383C57.2463 16.2037 54.9611 17.5279 52.293 18.2109C47.3771 19.4993 42.5256 19.2883 37.7383 17.5781C35.4791 16.7602 33.6393 15.3891 32.2188 13.4648C30.9823 11.2044 31.1698 9.07158 32.7813 7.06641C34.3246 5.43066 36.1645 4.24706 38.3008 3.51563C40.7504 2.68555 43.2582 2.25196 45.8242 2.21485Z" fill="white"/>
<path fill-rule="evenodd" clip-rule="evenodd" d="M44.207 5.02733C45.5441 5.01158 46.88 5.03501 48.2148 5.09765C47.819 7.47315 46.7174 9.45365 44.9101 11.0391C42.9091 12.6958 40.6356 13.8326 38.0898 14.4492C36.6853 13.853 35.7595 12.8218 35.3125 11.3555C35.1054 10.149 35.4101 9.09428 36.2265 8.1914C37.4862 6.9693 38.9745 6.13727 40.6914 5.6953C41.8552 5.37572 43.0271 5.15307 44.207 5.02733Z" fill="white"/>
<path fill-rule="evenodd" clip-rule="evenodd" d="M49.2695 5.23828C51.2831 5.54598 53.1347 6.26082 54.8242 7.38281C55.9561 8.18163 56.5889 9.27148 56.7227 10.6523C56.7005 11.3392 56.4896 11.9603 56.0898 12.5156C52.7571 12.8276 49.6399 12.1596 46.7383 10.5117C48.0145 8.96702 48.8582 7.20921 49.2695 5.23828Z" fill="white"/>
<path fill-rule="evenodd" clip-rule="evenodd" d="M45.9648 11.3555C48.7895 12.8762 51.8129 13.6613 55.0352 13.7109C53.9069 14.6032 52.6412 15.236 51.2383 15.6094C47.8225 16.4734 44.4007 16.4969 40.9727 15.6797C40.4888 15.5575 40.0201 15.3934 39.5664 15.1875C41.6274 14.5088 43.5024 13.5011 45.1914 12.1641C45.4635 11.9038 45.7214 11.6342 45.9648 11.3555Z" fill="white"/>
<path d="M0.821733 70V60.5455H4.55185C5.26894 60.5455 5.87985 60.6824 6.38459 60.9563C6.88932 61.2272 7.27403 61.6042 7.53871 62.0874C7.80646 62.5675 7.94034 63.1214 7.94034 63.7493C7.94034 64.3771 7.80492 64.9311 7.53409 65.4112C7.26326 65.8913 6.87086 66.2653 6.35689 66.533C5.846 66.8008 5.22739 66.9347 4.50107 66.9347H2.12358V65.3327H4.17791C4.56262 65.3327 4.87962 65.2666 5.12891 65.1342C5.38127 64.9988 5.56901 64.8126 5.69212 64.5756C5.8183 64.3356 5.88139 64.0601 5.88139 63.7493C5.88139 63.4354 5.8183 63.1615 5.69212 62.9276C5.56901 62.6906 5.38127 62.5075 5.12891 62.3782C4.87654 62.2459 4.55646 62.1797 4.16868 62.1797H2.82067V70H0.821733ZM12.2914 70.1385C11.5743 70.1385 10.9541 69.9862 10.4309 69.6815C9.91081 69.3737 9.50917 68.9459 9.22603 68.3981C8.94289 67.8472 8.80131 67.2086 8.80131 66.4822C8.80131 65.7498 8.94289 65.1096 9.22603 64.5618C9.50917 64.0109 9.91081 63.5831 10.4309 63.2784C10.9541 62.9706 11.5743 62.8168 12.2914 62.8168C13.0085 62.8168 13.6271 62.9706 14.1472 63.2784C14.6704 63.5831 15.0736 64.0109 15.3567 64.5618C15.6399 65.1096 15.7814 65.7498 15.7814 66.4822C15.7814 67.2086 15.6399 67.8472 15.3567 68.3981C15.0736 68.9459 14.6704 69.3737 14.1472 69.6815C13.6271 69.9862 13.0085 70.1385 12.2914 70.1385ZM12.3006 68.6151C12.6268 68.6151 12.8992 68.5227 13.1177 68.3381C13.3362 68.1503 13.5009 67.8949 13.6117 67.5717C13.7256 67.2486 13.7825 66.8808 13.7825 66.4684C13.7825 66.056 13.7256 65.6882 13.6117 65.3651C13.5009 65.0419 13.3362 64.7865 13.1177 64.5987C12.8992 64.411 12.6268 64.3171 12.3006 64.3171C11.9713 64.3171 11.6943 64.411 11.4696 64.5987C11.248 64.7865 11.0803 65.0419 10.9664 65.3651C10.8556 65.6882 10.8002 66.056 10.8002 66.4684C10.8002 66.8808 10.8556 67.2486 10.9664 67.5717C11.0803 67.8949 11.248 68.1503 11.4696 68.3381C11.6943 68.5227 11.9713 68.6151 12.3006 68.6151ZM16.6447 70L16.6355 68.4396H16.8709C17.0371 68.4396 17.1802 68.3996 17.3002 68.3196C17.4234 68.2365 17.5249 68.1026 17.6049 67.918C17.685 67.7333 17.748 67.4886 17.7942 67.1839C17.8404 66.8762 17.8712 66.4976 17.8865 66.0483L18.002 62.9091H23.394V70H21.5197V64.4556H19.7701L19.6593 66.6207C19.6316 67.2147 19.5592 67.7256 19.4423 68.1534C19.3284 68.5812 19.1699 68.9321 18.9668 69.206C18.7637 69.4768 18.519 69.6768 18.2328 69.8061C17.9466 69.9354 17.6142 70 17.2356 70H16.6447ZM24.5031 70L24.4939 68.4396H24.7293C24.8955 68.4396 25.0386 68.3996 25.1586 68.3196C25.2818 68.2365 25.3833 68.1026 25.4633 67.918C25.5434 67.7333 25.6064 67.4886 25.6526 67.1839C25.6988 66.8762 25.7296 66.4976 25.7449 66.0483L25.8604 62.9091H31.2524V70H29.3781V64.4556H27.6285L27.5177 66.6207C27.49 67.2147 27.4176 67.7256 27.3007 68.1534C27.1868 68.5812 27.0283 68.9321 26.8252 69.206C26.6221 69.4768 26.3774 69.6768 26.0912 69.8061C25.805 69.9354 25.4726 70 25.094 70H24.5031ZM34.6559 67.4055L37.2088 62.9091H39.1477V70H37.2734V65.4897L34.7298 70H32.777V62.9091H34.6559V67.4055ZM46.309 57.4986V73.0469H44.444V57.4986H46.309ZM59.983 63.8555H57.961C57.9241 63.5939 57.8487 63.3615 57.7348 63.1584C57.6209 62.9522 57.4748 62.7768 57.2963 62.6321C57.1177 62.4875 56.9115 62.3767 56.6776 62.2997C56.4468 62.2228 56.196 62.1843 55.9252 62.1843C55.4358 62.1843 55.0096 62.3059 54.6464 62.549C54.2832 62.7891 54.0016 63.1399 53.8016 63.6016C53.6015 64.0601 53.5015 64.6172 53.5015 65.2727C53.5015 65.9467 53.6015 66.513 53.8016 66.9716C54.0047 67.4302 54.2878 67.7764 54.651 68.0103C55.0142 68.2442 55.4343 68.3612 55.9113 68.3612C56.1791 68.3612 56.4268 68.3258 56.6546 68.255C56.8854 68.1842 57.0901 68.0811 57.2686 67.9457C57.4471 67.8072 57.5948 67.6394 57.7117 67.4425C57.8318 67.2455 57.9149 67.0208 57.961 66.7685L59.983 66.7777C59.9307 67.2116 59.7999 67.6302 59.5906 68.0334C59.3844 68.4335 59.1059 68.792 58.7551 69.109C58.4073 69.4229 57.9918 69.6722 57.5086 69.8569C57.0285 70.0385 56.4853 70.1293 55.879 70.1293C55.0357 70.1293 54.2817 69.9384 53.6169 69.5568C52.9552 69.1752 52.432 68.6228 52.0473 67.8995C51.6657 67.1763 51.4749 66.3007 51.4749 65.2727C51.4749 64.2417 51.6688 63.3646 52.0566 62.6413C52.4443 61.9181 52.9706 61.3672 53.6354 60.9886C54.3002 60.607 55.048 60.4162 55.879 60.4162C56.4268 60.4162 56.9346 60.4931 57.4024 60.647C57.8733 60.8009 58.2903 61.0256 58.6535 61.321C59.0167 61.6134 59.3121 61.9719 59.5399 62.3967C59.7707 62.8214 59.9184 63.3076 59.983 63.8555ZM64.6111 70.1385C63.8817 70.1385 63.2538 69.9908 62.7275 69.6953C62.2043 69.3968 61.8012 68.9751 61.518 68.4304C61.2349 67.8826 61.0933 67.2347 61.0933 66.4869C61.0933 65.7575 61.2349 65.1173 61.518 64.5664C61.8012 64.0155 62.1997 63.5862 62.7137 63.2784C63.2307 62.9706 63.837 62.8168 64.5326 62.8168C65.0004 62.8168 65.4359 62.8922 65.839 63.043C66.2453 63.1907 66.5992 63.4138 66.9008 63.7124C67.2055 64.0109 67.4425 64.3864 67.6118 64.8388C67.781 65.2881 67.8657 65.8144 67.8657 66.4176V66.9577H61.8781V65.739H66.0145C66.0145 65.4558 65.9529 65.205 65.8298 64.9865C65.7067 64.768 65.5359 64.5972 65.3174 64.4741C65.1019 64.3479 64.8511 64.2848 64.5649 64.2848C64.2664 64.2848 64.0017 64.354 63.7709 64.4925C63.5431 64.628 63.3646 64.8111 63.2354 65.0419C63.1061 65.2696 63.0399 65.5236 63.0368 65.8036V66.9624C63.0368 67.3132 63.1015 67.6164 63.2307 67.8718C63.3631 68.1272 63.5493 68.3242 63.7893 68.4627C64.0294 68.6012 64.3141 68.6705 64.6434 68.6705C64.8619 68.6705 65.0619 68.6397 65.2435 68.5781C65.4251 68.5166 65.5805 68.4242 65.7098 68.3011C65.839 68.178 65.9375 68.0272 66.0052 67.8487L67.8241 67.9688C67.7318 68.4058 67.5425 68.7874 67.2563 69.1136C66.9732 69.4368 66.6069 69.6892 66.1576 69.8707C65.7113 70.0492 65.1958 70.1385 64.6111 70.1385ZM68.602 64.4556V62.9091H75.0281V64.4556H72.743V70H70.8687V64.4556H68.602ZM78.0993 67.4055L80.6522 62.9091H82.5911V70H80.7168V65.4897L78.1731 70H76.2203V62.9091H78.0993V67.4055Z" fill="white"/>
</svg>
