<svg width="51" height="50" viewBox="0 0 51 50" fill="none" xmlns="http://www.w3.org/2000/svg">
<path fill-rule="evenodd" clip-rule="evenodd" d="M25.2495 47.0588C13.0848 47.0588 3.19068 37.1647 3.19068 25C3.19068 12.8353 13.0848 2.94117 25.2495 2.94117C37.4142 2.94117 47.3083 12.8353 47.3083 25C47.3083 37.1647 37.4142 47.0588 25.2495 47.0588ZM25.2495 0C11.4642 0 0.249512 11.2147 0.249512 25C0.249512 38.7853 11.4642 50 25.2495 50C39.0348 50 50.2495 38.7853 50.2495 25C50.2495 11.2147 39.0348 0 25.2495 0ZM22.4981 30.1556L15.4333 23.0909L13.3539 25.1703L22.4981 34.3144L38.1245 18.6879L36.0451 16.6085L22.4981 30.1556Z" fill="#B2854F"/>
</svg>
