<svg width="75" height="75" viewBox="0 0 75 75" fill="none" xmlns="http://www.w3.org/2000/svg">
<g clip-path="url(#clip0_564_242)">
<path d="M74.9936 5.54512C74.8997 4.19731 73.7086 3.1791 72.3839 3.27534L2.27579 8.16675C0.92872 8.26138 -0.0878817 9.4293 0.00601475 10.7771C0.0959562 12.0667 1.17057 13.0523 2.44366 13.0523C2.50108 13.0523 2.55821 13.0507 2.61651 13.0467L72.7248 8.15547C74.0717 8.06084 75.0876 6.89307 74.9936 5.54512Z" fill="#B2854F"/>
<path d="M72.5547 13.0522H2.44653C1.09551 13.0522 0.000976562 14.1469 0.000976562 15.4978C0.000976562 16.8488 1.09565 17.9271 2.44653 17.9271H72.5548C73.905 17.9271 75.0005 16.8487 75.0005 15.4978C75.0004 14.1469 73.9048 13.0522 72.5547 13.0522Z" fill="#B2854F"/>
<path d="M17.1202 37.5083C13.0744 37.5083 9.7832 40.7995 9.7832 44.8453C9.7832 48.891 13.0744 52.1822 17.1202 52.1822C21.1659 52.1822 24.4571 48.891 24.4571 44.8453C24.4571 40.7995 21.1659 37.5083 17.1202 37.5083Z" fill="#B2854F"/>
<path d="M75.0005 49.7368V39.9543C75.0005 33.2112 69.5153 27.7261 62.7723 27.7261H52.9898C46.2468 27.7261 40.7616 33.2113 40.7616 39.9543V49.7368C40.7616 56.4798 46.2468 61.965 52.9898 61.965H22.0117C28.7547 61.965 34.2235 56.4798 34.2235 49.7368V39.9543C34.2235 33.2113 28.7545 27.7261 22.0117 27.7261H12.2292C5.48623 27.7261 0.000976562 33.2113 0.000976562 39.9543V49.7368C0.000976562 56.4798 5.48623 61.965 12.2292 61.965H2.44668C1.09609 61.965 0.00112305 63.06 0.00112305 64.4107C0.00112305 68.4628 3.28589 71.7313 7.33809 71.7313H67.6637C71.7158 71.7313 75.0007 68.4628 75.0007 64.4107C75.0007 63.0602 73.9057 61.965 72.555 61.965H62.7725C69.5153 61.965 75.0005 56.4798 75.0005 49.7368ZM4.89224 49.7368V39.9543C4.89224 35.9085 8.18345 32.6011 12.2292 32.6011H22.0117C26.0575 32.6011 29.3487 35.9085 29.3487 39.9543V49.7368C29.3487 53.7826 26.0575 57.0738 22.0117 57.0738H12.2292C8.1833 57.0738 4.89224 53.7826 4.89224 49.7368ZM70.1093 49.7368C70.1093 53.7826 66.8181 57.0738 62.7723 57.0738H52.9898C48.944 57.0738 45.6366 53.7826 45.6366 49.7368V39.9543C45.6366 35.9085 48.944 32.6011 52.9898 32.6011H62.7723C66.8181 32.6011 70.1093 35.9085 70.1093 39.9543V49.7368Z" fill="#B2854F"/>
<path d="M57.8804 37.5083C53.8347 37.5083 50.5435 40.7995 50.5435 44.8453C50.5435 48.891 53.8347 52.1822 57.8804 52.1822C61.9262 52.1822 65.2174 48.891 65.2174 44.8453C65.2174 40.7995 61.9262 37.5083 57.8804 37.5083Z" fill="#B2854F"/>
</g>
<defs>
<clipPath id="clip0_564_242">
<rect width="75" height="75" fill="white"/>
</clipPath>
</defs>
</svg>
